<svg width="98" height="27" viewBox="0 0 98 27" fill="none" xmlns="http://www.w3.org/2000/svg">
<path d="M7.24 22.36C5.98 22.36 4.915 22.045 4.045 21.415C3.185 20.775 2.495 19.93 1.975 18.88C1.455 17.82 1.075 16.65 0.835 15.37C0.605 14.09 0.49 12.8 0.49 11.5C0.49 10.2 0.605 8.91 0.835 7.63C1.075 6.35 1.455 5.185 1.975 4.135C2.495 3.075 3.185 2.23 4.045 1.6C4.915 0.96 5.98 0.64 7.24 0.64C8.5 0.64 9.56 0.96 10.42 1.6C11.29 2.23 11.985 3.075 12.505 4.135C13.025 5.185 13.4 6.35 13.63 7.63C13.87 8.91 13.99 10.2 13.99 11.5C13.99 12.8 13.87 14.09 13.63 15.37C13.4 16.65 13.025 17.82 12.505 18.88C11.985 19.93 11.29 20.775 10.42 21.415C9.56 22.045 8.5 22.36 7.24 22.36ZM7.24 20.47C8.09 20.47 8.805 20.205 9.385 19.675C9.965 19.135 10.43 18.425 10.78 17.545C11.14 16.665 11.4 15.7 11.56 14.65C11.72 13.59 11.8 12.54 11.8 11.5C11.8 10.36 11.72 9.255 11.56 8.185C11.4 7.115 11.14 6.155 10.78 5.305C10.43 4.455 9.965 3.78 9.385 3.28C8.805 2.78 8.09 2.53 7.24 2.53C6.39 2.53 5.675 2.8 5.095 3.34C4.515 3.87 4.045 4.575 3.685 5.455C3.335 6.335 3.08 7.305 2.92 8.365C2.76 9.415 2.68 10.46 2.68 11.5C2.68 12.64 2.76 13.745 2.92 14.815C3.08 15.885 3.335 16.845 3.685 17.695C4.045 18.545 4.515 19.22 5.095 19.72C5.675 20.22 6.39 20.47 7.24 20.47ZM38.1527 22V0.999999H40.2527V10.09H48.1727V0.999999H50.2727V22H48.1727V12.07H40.2527V22H38.1527ZM54.929 22L61.859 0.999999H63.479L70.469 22H68.339L63.269 6.31C63.239 6.21 63.179 6.035 63.089 5.785C63.009 5.525 62.924 5.265 62.834 5.005C62.754 4.745 62.699 4.55 62.669 4.42C62.639 4.55 62.584 4.745 62.504 5.005C62.424 5.265 62.344 5.52 62.264 5.77C62.194 6.02 62.139 6.2 62.099 6.31L57.119 22H54.929ZM58.109 16.57L58.739 14.71H66.629L67.259 16.57H58.109ZM82.1153 22.36C80.7353 22.36 79.5553 22.06 78.5753 21.46C77.6053 20.85 76.8153 20.03 76.2053 19C75.5953 17.96 75.1453 16.795 74.8553 15.505C74.5753 14.205 74.4353 12.87 74.4353 11.5C74.4353 10.07 74.5853 8.705 74.8853 7.405C75.1853 6.095 75.6453 4.935 76.2653 3.925C76.8953 2.905 77.6953 2.105 78.6653 1.525C79.6353 0.935 80.7853 0.64 82.1153 0.64C83.1653 0.64 84.0303 0.805 84.7103 1.135C85.4003 1.455 85.9603 1.875 86.3903 2.395C86.8303 2.915 87.1953 3.46 87.4853 4.03L85.6253 5.11C85.2653 4.43 84.8203 3.83 84.2903 3.31C83.7703 2.79 83.0453 2.53 82.1153 2.53C81.1053 2.53 80.2503 2.8 79.5503 3.34C78.8503 3.87 78.2853 4.575 77.8553 5.455C77.4253 6.335 77.1103 7.305 76.9103 8.365C76.7203 9.415 76.6253 10.46 76.6253 11.5C76.6253 12.65 76.7303 13.765 76.9403 14.845C77.1503 15.915 77.4753 16.875 77.9153 17.725C78.3553 18.565 78.9203 19.235 79.6103 19.735C80.3103 20.225 81.1453 20.47 82.1153 20.47C83.1053 20.47 83.8953 20.225 84.4853 19.735C85.0753 19.235 85.5553 18.59 85.9253 17.8L87.7853 18.52C87.5153 19.16 87.1303 19.775 86.6303 20.365C86.1403 20.945 85.5203 21.425 84.7703 21.805C84.0203 22.175 83.1353 22.36 82.1153 22.36Z" fill="#BD9E6F"/>
</svg>
