<svg width="799" height="579" viewBox="0 0 799 579" fill="none" xmlns="http://www.w3.org/2000/svg">
<g filter="url(#filter0_f_172_2617)">
<ellipse cx="399.5" cy="289.5" rx="199.5" ry="89.5" fill="#D5A855" fill-opacity="0.76"/>
</g>
<path d="M383.429 224.548C346.5 223.127 349.128 224.548 309.832 227.902C276.934 227.902 252.782 235.298 219.966 240.881C208.116 242.897 198.033 243.192 179.756 248.079C169.61 250.792 138.763 263.613 127.667 271.114C117.925 277.7 120.084 290.724 123.951 295.172C130.805 303.054 135.407 306.364 144.366 311.772C173.371 329.28 246.058 343.404 278.391 350.385C326.326 360.735 394.269 353.98 442.971 359.148C493.99 364.562 545.876 361.839 596.85 354.589M383.429 224.548C455.224 223.558 526.414 228.798 596.85 243.766C618.638 248.395 640.429 253.954 660.967 263.062C673.706 268.711 687.274 275.837 697.337 286.059C709.744 298.664 706.161 316.864 693.212 327.25C682.597 335.765 669.306 341.133 656.767 345.523C637.086 352.413 617.378 351.669 596.85 354.589M383.429 224.548C346.841 225.053 310.317 227.179 273.944 231.4C238.806 235.478 203.094 239.826 168.808 249.2C150.643 254.167 130.064 260.818 115.115 273.379C107.149 280.073 105.968 291.829 111.091 302.035C117.319 314.442 127.712 320.929 139.187 326.935C159.621 337.633 182.207 343.166 204.578 347.177C267.365 358.434 332.165 360.66 395.727 359.384C446.197 358.372 546.438 356.818 596.85 354.589" stroke="#FFF6DE" stroke-opacity="0.48" stroke-width="2" stroke-linecap="round"/>
<path d="M440.288 220.826C477.155 218.559 474.558 220.044 513.885 222.512C546.753 221.763 571.031 228.629 603.931 233.481C615.81 235.232 625.889 235.299 644.248 239.783C654.44 242.273 685.517 254.428 696.754 261.698C706.621 268.08 704.726 281.191 700.952 285.74C694.263 293.802 689.733 297.226 680.891 302.853C652.265 321.072 579.93 336.893 547.767 344.631C500.084 356.103 432.067 350.877 383.515 357.169C332.651 363.762 280.758 362.213 229.685 356.103M440.288 220.826C368.538 221.468 297.52 228.346 227.45 244.961C205.776 250.1 184.116 256.172 163.781 265.773C151.167 271.729 137.756 279.185 127.908 289.666C115.766 302.59 119.713 320.76 132.86 330.882C143.636 339.179 157.024 344.26 169.64 348.376C189.442 354.838 209.116 353.643 229.685 356.103M440.288 220.826C476.852 220.498 513.386 221.798 549.811 225.203C584.998 228.492 620.766 232.038 655.209 240.658C673.458 245.225 694.151 251.427 709.34 263.683C717.434 270.215 718.851 281.978 713.939 292.33C707.966 304.915 697.713 311.657 686.371 317.942C666.171 329.136 643.717 335.2 621.447 339.732C558.945 352.452 494.25 356.161 430.72 356.33C380.276 356.464 280.096 357.19 229.685 356.103" stroke="#FFF6DE" stroke-opacity="0.48" stroke-width="2" stroke-linecap="round"/>
<path opacity="0.9" d="M191.644 310.735C188.584 310.735 186.034 310.008 183.994 308.553C181.954 307.098 180.574 305.26 179.854 303.04L184.624 301.015C185.329 302.635 186.259 303.82 187.414 304.57C188.569 305.32 189.979 305.695 191.644 305.695C193.309 305.695 194.659 305.298 195.694 304.503C196.744 303.708 197.269 302.59 197.269 301.15C197.269 299.77 196.789 298.63 195.829 297.73C194.884 296.83 193.339 296.38 191.194 296.38H186.604V291.295H191.194C192.214 291.295 193.099 291.123 193.849 290.778C194.599 290.418 195.176 289.93 195.581 289.315C195.986 288.685 196.189 287.965 196.189 287.155C196.189 285.94 195.769 284.98 194.929 284.275C194.089 283.555 192.934 283.195 191.464 283.195C190.009 283.195 188.786 283.563 187.796 284.298C186.821 285.018 186.064 285.91 185.524 286.975L180.709 285.04C181.264 283.735 182.029 282.565 183.004 281.53C183.994 280.48 185.186 279.655 186.581 279.055C187.991 278.455 189.604 278.155 191.419 278.155C193.519 278.155 195.326 278.545 196.841 279.325C198.371 280.105 199.541 281.163 200.351 282.498C201.176 283.833 201.589 285.34 201.589 287.02C201.589 288.46 201.199 289.788 200.419 291.003C199.639 292.203 198.529 293.095 197.089 293.68C198.694 294.1 200.021 294.97 201.071 296.29C202.136 297.61 202.669 299.23 202.669 301.15C202.669 303.16 202.211 304.885 201.296 306.325C200.396 307.75 199.121 308.845 197.471 309.61C195.821 310.36 193.879 310.735 191.644 310.735ZM206.233 310.195L216.538 278.695H221.578L231.883 310.195H226.123L219.823 289.045C219.748 288.805 219.658 288.483 219.553 288.078C219.463 287.673 219.373 287.245 219.283 286.795C219.193 286.345 219.118 285.925 219.058 285.535C218.983 285.925 218.901 286.345 218.811 286.795C218.721 287.245 218.631 287.673 218.541 288.078C218.451 288.483 218.368 288.805 218.293 289.045L211.993 310.195H206.233ZM212.893 303.265L214.333 298.405H223.783L225.223 303.265H212.893ZM236.348 310.195V278.695H247.463C250.073 278.695 252.143 279.175 253.673 280.135C255.218 281.095 256.32 282.325 256.98 283.825C257.655 285.31 257.993 286.855 257.993 288.46C257.993 289.585 257.798 290.725 257.408 291.88C257.018 293.02 256.403 294.07 255.563 295.03C254.723 295.99 253.635 296.763 252.3 297.348C250.965 297.933 249.353 298.225 247.463 298.225H241.703V310.195H236.348ZM241.703 293.185H247.733C248.903 293.185 249.84 292.953 250.545 292.488C251.25 292.008 251.76 291.408 252.075 290.688C252.39 289.953 252.548 289.21 252.548 288.46C252.548 287.785 252.405 287.088 252.12 286.368C251.835 285.633 251.34 285.01 250.635 284.5C249.945 283.99 248.978 283.735 247.733 283.735H241.703V293.185ZM264.077 310.195V278.695H284.282V283.78H269.432V291.385H279.107V296.47H269.432V305.11H285.227V310.195H264.077ZM291.807 310.195V278.695H314.082V283.825H297.207V310.195H291.807ZM319.536 310.195V278.695H324.486V297.91C324.486 298.18 324.479 298.51 324.464 298.9C324.449 299.29 324.426 299.68 324.396 300.07C324.531 299.77 324.719 299.395 324.959 298.945C325.199 298.495 325.386 298.15 325.521 297.91L335.241 278.695H340.416V310.195H335.421V290.89C335.421 290.59 335.429 290.238 335.444 289.833C335.459 289.428 335.496 289.06 335.556 288.73C335.406 289.015 335.204 289.383 334.949 289.833C334.709 290.283 334.521 290.635 334.386 290.89L324.486 310.195H319.536ZM358.246 310.69C355.966 310.69 354.031 310.225 352.441 309.295C350.851 308.35 349.568 307.098 348.593 305.538C347.618 303.963 346.906 302.215 346.456 300.295C346.006 298.36 345.781 296.41 345.781 294.445C345.781 292.555 346.006 290.658 346.456 288.753C346.921 286.833 347.648 285.078 348.638 283.488C349.628 281.898 350.911 280.623 352.486 279.663C354.076 278.688 355.996 278.2 358.246 278.2C360.016 278.2 361.546 278.523 362.836 279.168C364.141 279.798 365.221 280.615 366.076 281.62C366.931 282.625 367.576 283.675 368.011 284.77L363.241 287.065C362.641 285.895 361.958 284.973 361.193 284.298C360.443 283.623 359.461 283.285 358.246 283.285C356.971 283.285 355.891 283.623 355.006 284.298C354.121 284.973 353.401 285.865 352.846 286.975C352.306 288.085 351.916 289.293 351.676 290.598C351.436 291.903 351.316 293.185 351.316 294.445C351.316 295.78 351.451 297.108 351.721 298.428C352.006 299.748 352.426 300.948 352.981 302.028C353.551 303.108 354.271 303.978 355.141 304.638C356.026 305.283 357.061 305.605 358.246 305.605C359.461 305.605 360.466 305.23 361.261 304.48C362.056 303.715 362.731 302.74 363.286 301.555L368.146 303.4C367.576 304.795 366.841 306.048 365.941 307.158C365.056 308.253 363.976 309.115 362.701 309.745C361.426 310.375 359.941 310.69 358.246 310.69ZM382.735 310.195V283.825H373.6V278.695H397.27V283.825H388.09V310.195H382.735ZM402.725 310.195V278.695H413.84C416.45 278.695 418.52 279.175 420.05 280.135C421.595 281.095 422.697 282.325 423.357 283.825C424.032 285.31 424.37 286.855 424.37 288.46C424.37 289.585 424.175 290.725 423.785 291.88C423.395 293.02 422.78 294.07 421.94 295.03C421.1 295.99 420.012 296.763 418.677 297.348C417.342 297.933 415.73 298.225 413.84 298.225H408.08V310.195H402.725ZM408.08 293.185H414.11C415.28 293.185 416.217 292.953 416.922 292.488C417.627 292.008 418.137 291.408 418.452 290.688C418.767 289.953 418.925 289.21 418.925 288.46C418.925 287.785 418.782 287.088 418.497 286.368C418.212 285.633 417.717 285.01 417.012 284.5C416.322 283.99 415.355 283.735 414.11 283.735H408.08V293.185ZM430.454 310.195V278.695H435.404V297.91C435.404 298.18 435.397 298.51 435.382 298.9C435.367 299.29 435.344 299.68 435.314 300.07C435.449 299.77 435.637 299.395 435.877 298.945C436.117 298.495 436.304 298.15 436.439 297.91L446.159 278.695H451.334V310.195H446.339V290.89C446.339 290.59 446.347 290.238 446.362 289.833C446.377 289.428 446.414 289.06 446.474 288.73C446.324 289.015 446.122 289.383 445.867 289.833C445.627 290.283 445.439 290.635 445.304 290.89L435.404 310.195H430.454ZM458.184 310.195V278.695H469.299C471.909 278.695 473.979 279.175 475.509 280.135C477.054 281.095 478.156 282.325 478.816 283.825C479.491 285.31 479.829 286.855 479.829 288.46C479.829 289.585 479.634 290.725 479.244 291.88C478.854 293.02 478.239 294.07 477.399 295.03C476.559 295.99 475.471 296.763 474.136 297.348C472.801 297.933 471.189 298.225 469.299 298.225H463.539V310.195H458.184ZM463.539 293.185H469.569C470.739 293.185 471.676 292.953 472.381 292.488C473.086 292.008 473.596 291.408 473.911 290.688C474.226 289.953 474.384 289.21 474.384 288.46C474.384 287.785 474.241 287.088 473.956 286.368C473.671 285.633 473.176 285.01 472.471 284.5C471.781 283.99 470.814 283.735 469.569 283.735H463.539V293.185ZM496.353 310.735C494.238 310.735 492.423 310.293 490.908 309.408C489.408 308.508 488.178 307.293 487.218 305.763C486.258 304.233 485.553 302.493 485.103 300.543C484.653 298.593 484.428 296.56 484.428 294.445C484.428 292.33 484.653 290.298 485.103 288.348C485.553 286.398 486.258 284.658 487.218 283.128C488.178 281.598 489.408 280.39 490.908 279.505C492.423 278.605 494.238 278.155 496.353 278.155C498.468 278.155 500.283 278.605 501.798 279.505C503.313 280.39 504.551 281.598 505.511 283.128C506.471 284.658 507.176 286.398 507.626 288.348C508.091 290.298 508.323 292.33 508.323 294.445C508.323 296.56 508.091 298.593 507.626 300.543C507.176 302.493 506.471 304.233 505.511 305.763C504.551 307.293 503.313 308.508 501.798 309.408C500.283 310.293 498.468 310.735 496.353 310.735ZM496.353 305.65C497.463 305.65 498.423 305.335 499.233 304.705C500.043 304.075 500.703 303.228 501.213 302.163C501.738 301.098 502.121 299.898 502.361 298.563C502.616 297.228 502.743 295.855 502.743 294.445C502.743 292.945 502.616 291.528 502.361 290.193C502.121 288.843 501.746 287.65 501.236 286.615C500.726 285.565 500.066 284.74 499.256 284.14C498.446 283.54 497.478 283.24 496.353 283.24C495.228 283.24 494.261 283.555 493.451 284.185C492.641 284.8 491.981 285.64 491.471 286.705C490.961 287.77 490.578 288.97 490.323 290.305C490.083 291.64 489.963 293.02 489.963 294.445C489.963 295.93 490.083 297.348 490.323 298.698C490.578 300.033 490.961 301.225 491.471 302.275C491.981 303.325 492.641 304.15 493.451 304.75C494.261 305.35 495.228 305.65 496.353 305.65ZM513.643 310.195V278.695H524.263C526.813 278.695 528.823 279.108 530.293 279.933C531.763 280.743 532.805 281.793 533.42 283.083C534.035 284.358 534.343 285.7 534.343 287.11C534.343 288.505 534.005 289.78 533.33 290.935C532.67 292.075 531.643 292.96 530.248 293.59C532.003 294.175 533.3 295.158 534.14 296.538C534.995 297.918 535.423 299.395 535.423 300.97C535.423 302.065 535.243 303.16 534.883 304.255C534.523 305.35 533.93 306.348 533.105 307.248C532.295 308.133 531.223 308.845 529.888 309.385C528.553 309.925 526.903 310.195 524.938 310.195H513.643ZM518.998 305.245H525.298C526.543 305.245 527.51 305.035 528.2 304.615C528.89 304.18 529.37 303.64 529.64 302.995C529.925 302.335 530.068 301.675 530.068 301.015C530.068 300.235 529.903 299.493 529.573 298.788C529.258 298.068 528.658 297.483 527.773 297.033C526.903 296.568 525.643 296.335 523.993 296.335H518.998V305.245ZM518.998 291.43H523.543C525.388 291.43 526.753 291.07 527.638 290.35C528.538 289.615 528.988 288.655 528.988 287.47C528.988 286.855 528.868 286.255 528.628 285.67C528.403 285.085 527.96 284.605 527.3 284.23C526.64 283.84 525.673 283.645 524.398 283.645H518.998V291.43ZM538.987 310.195L549.292 278.695H554.332L564.637 310.195H558.877L552.577 289.045C552.502 288.805 552.412 288.483 552.307 288.078C552.217 287.673 552.127 287.245 552.037 286.795C551.947 286.345 551.872 285.925 551.812 285.535C551.737 285.925 551.655 286.345 551.565 286.795C551.475 287.245 551.385 287.673 551.295 288.078C551.205 288.483 551.122 288.805 551.047 289.045L544.747 310.195H538.987ZM545.647 303.265L547.087 298.405H556.537L557.977 303.265H545.647ZM576.842 310.195V283.825H567.707V278.695H591.377V283.825H582.197V310.195H576.842ZM596.831 310.195V278.695H602.186V291.385H608.441C610.991 291.385 613.046 291.843 614.606 292.758C616.181 293.658 617.321 294.828 618.026 296.268C618.746 297.708 619.106 299.215 619.106 300.79C619.106 302.365 618.746 303.873 618.026 305.313C617.321 306.753 616.181 307.93 614.606 308.845C613.046 309.745 610.991 310.195 608.441 310.195H596.831ZM602.186 305.155H608.711C609.851 305.155 610.789 304.975 611.524 304.615C612.274 304.24 612.829 303.723 613.189 303.063C613.564 302.403 613.751 301.645 613.751 300.79C613.751 299.92 613.564 299.163 613.189 298.518C612.829 297.858 612.274 297.348 611.524 296.988C610.789 296.613 609.851 296.425 608.711 296.425H602.186V305.155ZM635.541 310.69C633.261 310.69 631.326 310.225 629.736 309.295C628.146 308.35 626.863 307.098 625.888 305.538C624.913 303.963 624.201 302.215 623.751 300.295C623.301 298.36 623.076 296.41 623.076 294.445C623.076 292.555 623.301 290.658 623.751 288.753C624.216 286.833 624.943 285.078 625.933 283.488C626.923 281.898 628.206 280.623 629.781 279.663C631.371 278.688 633.291 278.2 635.541 278.2C637.311 278.2 638.841 278.523 640.131 279.168C641.436 279.798 642.516 280.615 643.371 281.62C644.226 282.625 644.871 283.675 645.306 284.77L640.536 287.065C639.936 285.895 639.253 284.973 638.488 284.298C637.738 283.623 636.756 283.285 635.541 283.285C634.266 283.285 633.186 283.623 632.301 284.298C631.416 284.973 630.696 285.865 630.141 286.975C629.601 288.085 629.211 289.293 628.971 290.598C628.731 291.903 628.611 293.185 628.611 294.445C628.611 295.78 628.746 297.108 629.016 298.428C629.301 299.748 629.721 300.948 630.276 302.028C630.846 303.108 631.566 303.978 632.436 304.638C633.321 305.283 634.356 305.605 635.541 305.605C636.756 305.605 637.761 305.23 638.556 304.48C639.351 303.715 640.026 302.74 640.581 301.555L645.441 303.4C644.871 304.795 644.136 306.048 643.236 307.158C642.351 308.253 641.271 309.115 639.996 309.745C638.721 310.375 637.236 310.69 635.541 310.69ZM667.815 310.195V297.865H662.1C659.925 297.865 658.08 297.415 656.565 296.515C655.065 295.615 653.925 294.438 653.145 292.983C652.365 291.528 651.975 289.975 651.975 288.325C651.975 286.66 652.298 285.093 652.943 283.623C653.588 282.153 654.66 280.968 656.16 280.068C657.675 279.153 659.73 278.695 662.325 278.695H673.17V310.195H667.815ZM651.075 310.195L660.165 295.12H666.465L657.285 310.195H651.075ZM662.145 292.825H667.815V283.735H662.145C660.93 283.735 659.985 283.968 659.31 284.433C658.635 284.883 658.155 285.453 657.87 286.143C657.6 286.833 657.465 287.53 657.465 288.235C657.465 289.015 657.6 289.758 657.87 290.463C658.155 291.153 658.635 291.723 659.31 292.173C659.985 292.608 660.93 292.825 662.145 292.825Z" fill="#ECDFBA"/>
<defs>
<filter id="filter0_f_172_2617" x="0" y="0" width="799" height="579" filterUnits="userSpaceOnUse" color-interpolation-filters="sRGB">
<feFlood flood-opacity="0" result="BackgroundImageFix"/>
<feBlend mode="normal" in="SourceGraphic" in2="BackgroundImageFix" result="shape"/>
<feGaussianBlur stdDeviation="100" result="effect1_foregroundBlur_172_2617"/>
</filter>
</defs>
</svg>
