<svg width="802" height="281" viewBox="0 0 802 281" fill="none" xmlns="http://www.w3.org/2000/svg">
<path d="M75.5683 195.678C60.6487 193.473 44.0133 189.395 31.9683 178.926C20.7937 169.213 11.3104 149 11.3104 149C0.766916 127.6 -0.547514 115.041 2.31039 91.4422C3.32898 83.0313 8.19959 68.5981 14.6865 63.1369C28.6137 55.7111 38.0197 48.078 53.0341 48.8397C71.7397 49.7887 89.5572 52.8383 106.043 62.8884C106.752 63.3207 94.658 50.5345 94.9641 46.7097C95.7895 36.3963 96.9772 28.9515 102.927 20.3857C114.146 4.23463 130.802 3.99634 147.996 8.54292C164.255 12.8426 178.759 31.3521 189.825 45.4414C191.097 47.402 199.005 22.9669 206.336 16.029C211.655 10.9958 218.56 2.32957 225.821 1.36364C236.594 -0.0696124 246.773 2.70513 255.189 10.1997C270.838 24.1368 283.596 38.3032 294.357 58.5124C294.357 58.5124 307.414 82.4185 308.276 81.9925M75.5683 195.678C77.3765 195.945 75.1561 192.991 75.5683 195.678ZM75.5683 195.678C76.027 198.668 76.9951 193.279 75.5683 195.678ZM75.5683 195.678C61.1527 219.907 67.2903 238.563 87.5091 252.761C123.777 278.23 175.58 283.791 217.462 276.385C240.802 272.258 277.269 262.395 283.596 233.371C283.807 232.403 284.441 228.373 286.137 228.646C292.422 229.658 300.253 237.232 305.509 240.489C342.241 263.252 381.722 275.281 424.053 276.754C444.14 277.452 463.914 275.775 483.354 270.004C500.38 264.949 518.802 258.932 529.496 242.698C534.464 235.155 538.319 227.008 541.017 218.215C541.062 218.067 542.903 209.307 543.558 209.256C544.18 209.208 544.679 209.852 545.253 210.115C550.975 212.742 557.115 214.57 563.099 216.251C599.446 226.461 637.249 229.583 674.584 232.328C712.761 235.135 768.879 246.445 791.886 202.997C809.327 170.062 796.688 138.343 778.388 109.728C748.511 63.008 704.386 26.3046 651.316 19.0971C626.478 15.7238 607.408 10.1997 579.305 19.0971C579.305 19.0971 539.808 36.5723 525.06 52.1709C517.297 60.3821 499.307 82.3503 492.429 91.4422M492.429 91.4422C490.205 94.3818 495.57 89.6048 492.429 91.4422ZM492.429 91.4422C484.979 70.2357 491.938 77.8033 458.905 44.1939C448.148 35.8559 428.966 24.5582 428.966 24.5582C428.966 24.5582 407.737 19.0971 392.495 19.0971C368.545 19.0971 358.165 26.9739 344.873 38.3032C330.699 50.3843 318.357 65.7524 308.276 81.9925M308.276 81.9925C307.252 83.6427 313.359 72.5428 308.276 81.9925Z" stroke="#BD9E6F" stroke-width="2" stroke-linecap="round"/>
</svg>
