<svg width="411" height="146" viewBox="0 0 411 146" fill="none" xmlns="http://www.w3.org/2000/svg">
<path d="M218.85 2.40028C244.054 -0.211509 242.299 1.29787 269.259 3.39781C291.749 2.34065 308.474 8.97914 331.071 13.5219C339.23 15.1621 346.131 15.1345 358.768 19.4465C365.783 21.8404 387.243 33.7031 395.046 40.8664C401.898 47.156 400.801 60.2828 398.286 64.8667C393.83 72.9894 390.781 76.4557 384.814 82.1651C365.494 100.65 316.215 117.145 294.315 125.184C261.847 137.101 215.203 132.511 182.06 139.258C147.34 146.325 111.791 145.263 76.7336 139.632M218.85 2.40028C169.74 3.71436 121.227 11.2559 73.5105 28.5248C58.7509 33.8665 44.0157 40.1401 30.2408 49.9305C21.6961 56.0038 12.6282 63.5837 6.04651 74.1558C-2.06887 87.1915 0.909863 105.322 10.064 115.32C17.5681 123.515 26.8104 128.47 35.5098 132.468C49.1648 138.743 62.6154 137.364 76.7336 139.632M218.85 2.40028C243.876 1.7306 268.907 2.68842 293.895 5.75167C318.034 8.71088 342.574 11.9219 366.285 20.2184C378.847 24.614 393.108 30.6217 403.693 42.734C409.334 49.1887 410.483 60.9376 407.278 71.3338C403.38 83.9733 396.464 90.8099 388.795 97.2009C375.137 108.582 359.858 114.855 344.681 119.595C302.087 132.899 257.853 137.212 214.364 137.976C179.833 138.583 111.261 140.247 76.7336 139.632" stroke="#FFF6DE" stroke-opacity="0.48" stroke-width="2" stroke-linecap="round"/>
</svg>
