<svg width="298" height="162" viewBox="0 0 298 162" fill="none" xmlns="http://www.w3.org/2000/svg">
<path d="M174.157 72.8098C174.015 75.0478 175.73 79.2012 177.4 92.7895C178.863 104.696 181.017 116.301 183.064 128.153C183.664 131.629 184.483 135.057 184.91 138.556C185.528 143.617 185.835 151.199 189.966 155.405C190.333 155.779 190.88 155.414 191.175 155.207C194.776 152.679 197.988 149.179 201.253 146.383C222.48 128.207 244.403 110.805 266.217 93.2233C272.316 88.3077 278.799 83.9025 285.346 79.4797C287.76 77.8489 290.108 76.1722 292.377 74.3824C292.815 74.0369 294.091 73.3876 293.537 73.2075C281.266 66.5627 267.914 57.3068 252.499 52.5005C243.744 49.7706 235.596 46.1213 226.999 43.0005C224.655 42.1496 217.206 38.6347 214.999 37.5005" stroke="#DD9E28" stroke-opacity="0.58" stroke-width="2" stroke-linecap="round"/>
<path d="M174.21 75.1065C182.917 64.8128 193.181 55.8419 203.063 46.7073C206.415 43.6099 209.869 40.111 213.665 37.5259" stroke="#DD9E28" stroke-opacity="0.58" stroke-width="2" stroke-linecap="round"/>
<path d="M156.772 41.9375C160.488 51.5841 168.658 65.6183 173.743 74.5758" stroke="#DD9E28" stroke-opacity="0.58" stroke-width="2" stroke-linecap="round"/>
<path d="M156.741 42.437C167.521 32.1435 179.108 22.8603 190.637 13.5223" stroke="#DD9E28" stroke-opacity="0.58" stroke-width="2" stroke-linecap="round"/>
<path d="M191.666 13.0869C196.499 19.8055 209.034 30.5946 214.195 37.0594" stroke="#DD9E28" stroke-opacity="0.58" stroke-width="2" stroke-linecap="round"/>
<path d="M155.5 1.5L171 27.5" stroke="#DD9E28" stroke-opacity="0.58" stroke-width="2" stroke-linecap="round"/>
<path d="M155 1C104.607 32.5615 48.1721 72.0778 -2 104" stroke="#DD9E28" stroke-opacity="0.58" stroke-width="2" stroke-linecap="round"/>
<path d="M18.4579 68.4176C16.2687 82.4758 22.2145 92.6055 30.2112 96.4684C39.5236 100.967 44.8821 94.7204 47.1933 86.653C48.6481 81.575 49.7355 75.0731 47.3925 70.0535C45.2832 65.5348 43.805 67.6742 45.4502 71.93C47.2627 76.6184 56.4934 91.0206 63.777 84.7766C67.0898 81.9365 69.2189 66.323 64.5738 63.7987C63.4852 63.2071 64.5202 66.2496 64.8726 67.4072C65.9083 70.8095 67.7649 74.6655 70.8985 76.7414C80.4015 83.0371 75.8025 61.0536 74.5838 58.4579C69.2998 47.2036 60.7748 42.6501 48.5379 40.415C29.5608 36.9488 20.3955 55.9758 18.4579 68.4176Z" stroke="#DD9E28" stroke-opacity="0.58" stroke-width="2" stroke-linecap="round"/>
</svg>
