<svg width="873" height="663" viewBox="0 0 873 663" fill="none" xmlns="http://www.w3.org/2000/svg">
<path d="M322.657 288.869C323.812 269.938 331.216 248.343 336.399 230.146C342.998 211.919 348.091 194.645 361.763 179.814C381.16 158.772 409.786 148.549 438.121 149.165C465.88 149.769 491.884 162.231 503.91 188.401C515.057 212.656 507.185 252.682 497.359 277.321C485.133 307.974 476.595 336.891 453.407 360.389C433.64 380.419 433.499 382.437 407.962 394.286C384.359 405.238 351.184 388.68 336.398 369.329C322.657 344.744 320.898 317.729 322.657 288.869Z" stroke="#DD9E28" stroke-width="2" stroke-linecap="round"/>
<path d="M408.469 223.969C407.155 247.009 401.103 269.971 394.921 292.314" stroke="#DD9E28" stroke-width="2" stroke-linecap="round"/>
<path d="M329.076 356.408C318.446 352.612 307.384 350.449 295.984 350.728C268.756 351.392 250.892 365.023 240.829 389.831C226.788 424.447 227.057 462.631 229.005 499.282C229.381 506.345 230.397 524.427 232.506 533.629" stroke="#DD9E28" stroke-width="2" stroke-linecap="round"/>
<path d="M462.716 350.658C477.36 342.645 494.165 340.649 510.993 344.195C533.881 349.018 546.949 373.974 557.91 390.818C573.87 415.346 581.693 440.815 586.991 468.897C589.091 480.033 591.382 494.315 592.148 506.024" stroke="#DD9E28" stroke-width="2" stroke-linecap="round"/>
<path d="M451.94 230.759C451.94 230.759 452.216 243.509 451.779 249.362" stroke="#DD9E28" stroke-width="2" stroke-linecap="round"/>
<path d="M378.05 224.054C378.05 224.054 377.452 234.146 377.727 240.584" stroke="#DD9E28" stroke-width="2" stroke-linecap="round"/>
<path d="M329.262 139.786C331.003 154.723 330.046 162.59 339.831 175.587C353.963 194.358 377.859 206.532 401.458 204.716C433.207 202.274 448 173.199 449.876 145.202C450.37 137.826 452.463 119.685 443.006 115.214C432.022 110.02 426.055 126.984 424.709 133.511C419.466 158.942 432.402 180.877 457.604 187.41C472.067 191.16 488.811 188.837 494.131 172.945C495.331 169.362 499.763 133.661 490.036 135.823C485.322 136.87 486.156 146.981 486.667 149.562C488.369 158.154 494.082 164.735 502.058 168.321C515.714 174.461 530.899 172.197 544.464 168.321" stroke="#DD9E28" stroke-width="2" stroke-linecap="round"/>
<path d="M366.611 325.448C372.107 325.031 375.733 326.227 377.383 332.82C378.39 336.842 377.335 339.039 376.138 342.509" stroke="#DD9E28" stroke-width="2" stroke-linecap="round"/>
<path d="M21.1771 617.446C16.8772 631.872 10.214 645.822 4.49695 659.913" stroke="#DD9E28" stroke-width="2" stroke-linecap="round"/>
<path d="M1.86328 618.838C13.9387 618.102 26.0057 618.326 38.1011 618.103C39.9425 618.069 41.4454 617.89 43.1246 617.446" stroke="#DD9E28" stroke-width="2" stroke-linecap="round"/>
<path d="M50.1472 614.662C51.7738 622.771 53.7745 630.639 57.1704 638.333" stroke="#DD9E28" stroke-width="2" stroke-linecap="round"/>
<path d="M72.096 621.626C64.9193 634.736 31.8667 668.988 43.1253 657.828" stroke="#DD9E28" stroke-width="2" stroke-linecap="round"/>
<path d="M97.5549 623.017C94.0596 634.451 88.7759 646.679 88.7759 658.523" stroke="#DD9E28" stroke-width="2" stroke-linecap="round"/>
<path d="M84.3859 619.535C94.4424 619.535 123.229 612.487 114.234 616.054" stroke="#DD9E28" stroke-width="2" stroke-linecap="round"/>
<path d="M189.734 616.752C188.656 631.539 184.468 645.988 181.833 660.612" stroke="#DD9E28" stroke-width="2" stroke-linecap="round"/>
<path d="M191.49 622.321C197.39 620.282 204.057 618.299 210.609 618.299C213.922 618.299 212.541 626.452 212.462 627.852C211.958 636.747 208.17 663.25 208.17 654.346" stroke="#DD9E28" stroke-width="2" stroke-linecap="round"/>
<path d="M232.752 620.232C228.723 629.954 226.008 639.867 224.265 650.014C223.883 652.235 221.202 660.107 226.509 660.998C239.282 663.143 244.683 641.564 245.774 635.239C246.941 628.471 248.156 617.921 239.287 613.773C231.823 610.282 229.449 617.261 227.484 621.625" stroke="#DD9E28" stroke-width="2" stroke-linecap="round"/>
<path d="M260.844 618.84C258.916 631.728 254.698 644.827 254.698 657.826" stroke="#DD9E28" stroke-width="2" stroke-linecap="round"/>
<path d="M258.211 636.939C265.139 632.167 272.309 627.691 279.573 623.248C285.226 619.79 276.445 625.17 276.062 625.413C269.673 629.482 260.743 634.369 256.26 639.956C255.82 640.504 259.055 641.167 259.333 641.271C262.717 642.543 266.291 644.105 269.038 646.144C273.264 649.281 275.769 653.947 275.769 658.521" stroke="#DD9E28" stroke-width="2" stroke-linecap="round"/>
<path d="M288.937 662.003C296.75 648.372 301.908 633.772 310.348 620.386C313.549 615.309 313.899 619.123 314.201 623.094C314.912 632.422 313.688 641.805 315.323 651.096C315.546 652.365 318.019 657.086 316.152 657.826" stroke="#DD9E28" stroke-width="2" stroke-linecap="round"/>
<path d="M293.326 643.903C301.927 641.276 309.893 639.882 318.786 638.333" stroke="#DD9E28" stroke-width="2" stroke-linecap="round"/>
<path d="M374.971 613.967C375.624 625.242 373.545 636.699 371.605 647.848C370.998 651.338 370.357 654.589 368.825 657.827" stroke="#DD9E28" stroke-width="2" stroke-linecap="round"/>
<path d="M368.825 641.119C376.167 638.74 383.628 636.796 391.261 635.086C392.567 634.793 396.52 634.157 395.162 634.157" stroke="#DD9E28" stroke-width="2" stroke-linecap="round"/>
<path d="M394.285 612.574C393.693 626.076 389.896 652.953 389.896 652.953" stroke="#DD9E28" stroke-width="2" stroke-linecap="round"/>
<path d="M415.354 620.232C412.776 631.168 409.632 642.074 407.794 653.108C407.095 657.31 407.086 659.365 410.721 655.081C415.886 648.991 419.53 642.238 423.255 635.549C426.965 628.888 429.954 620.009 436.034 614.353C439.293 611.321 437.241 619.943 437.204 620.116C435.364 628.768 433.517 637.398 432.132 646.107C431.413 650.629 431.299 655.067 431.156 659.606C431.116 660.873 430.342 657.483 430.278 657.13" stroke="#DD9E28" stroke-width="2" stroke-linecap="round"/>
<path d="M452.226 618.143C451.776 623.555 451.394 629.41 453.299 634.697C454.947 639.271 458.339 634.636 459.737 632.763C462.051 629.662 463.933 626.258 465.687 622.939C465.9 622.536 468.501 616.941 466.955 620.618C462.977 630.082 459.134 639.537 457.201 649.433C456.811 651.428 457.627 658.891 455.738 653.649" stroke="#DD9E28" stroke-width="2" stroke-linecap="round"/>
<path d="M483.831 619.535C480.212 629.838 476.727 640.182 473.638 650.593C473.284 651.785 470.833 657.202 473.589 658.097C479.167 659.906 488.186 656.406 492.61 659.914" stroke="#DD9E28" stroke-width="2" stroke-linecap="round"/>
<path d="M483.831 619.536C485.659 618.773 487.396 617.937 489.391 617.448C490.516 617.172 492.885 616.69 494.17 616.829C497.774 617.219 493.111 617.177 495.243 618.144" stroke="#DD9E28" stroke-width="2" stroke-linecap="round"/>
<path d="M476.807 636.94C482.621 635.078 488.414 633.583 494.365 632.066" stroke="#DD9E28" stroke-width="2" stroke-linecap="round"/>
<path d="M518.947 619.535C518.947 628.973 516.045 638.447 513.972 647.692C513.318 650.61 511.924 659.397 511.924 656.433" stroke="#DD9E28" stroke-width="2" stroke-linecap="round"/>
<path d="M518.069 618.144C521.349 617.222 539.288 611.168 538.261 616.055" stroke="#DD9E28" stroke-width="2" stroke-linecap="round"/>
<path d="M560.208 620.93C560.208 619.948 560.208 619.537 558.842 619.537C551.565 619.537 547.363 631.978 545.673 636.13C545 637.785 539.803 662.409 547.429 658.601C559.865 652.392 567.133 637.501 567.133 626.344C567.133 622.516 558.047 615.2 556.696 621.626" stroke="#DD9E28" stroke-width="2" stroke-linecap="round"/>
<path d="M647.12 618.84C642.202 630.99 639.94 643.325 636.585 655.738" stroke="#DD9E28" stroke-width="2" stroke-linecap="round"/>
<path d="M640.975 639.03C646.517 638.371 652.067 637.954 657.655 637.638" stroke="#DD9E28" stroke-width="2" stroke-linecap="round"/>
<path d="M666.434 617.446C663.51 626.857 660.049 636.147 656.972 645.525C655.994 648.506 655.021 651.289 655.021 654.344" stroke="#DD9E28" stroke-width="2" stroke-linecap="round"/>
<path d="M692.772 616.752C687.894 628.046 683.111 639.468 679.652 651.097C679.36 652.079 677.366 657.822 679.408 658.794C684.304 661.124 695.798 657.827 701.551 657.827" stroke="#DD9E28" stroke-width="2" stroke-linecap="round"/>
<path d="M681.358 637.638H698.916" stroke="#DD9E28" stroke-width="2" stroke-linecap="round"/>
<path d="M692.771 614.662C700.4 613.832 707.1 614.352 714.719 614.662" stroke="#DD9E28" stroke-width="2" stroke-linecap="round"/>
<path d="M735.788 623.714C734.993 635.176 731.423 646.372 730.52 657.828" stroke="#DD9E28" stroke-width="2" stroke-linecap="round"/>
<path d="M722.621 623.017C733.663 619.981 744.632 618.155 755.981 616.055" stroke="#DD9E28" stroke-width="2" stroke-linecap="round"/>
<path d="M781.439 657.827C782.995 656.788 783.964 656.804 785.829 656.435" stroke="#DD9E28" stroke-width="2" stroke-linecap="round"/>
<path d="M823.578 659.914C824.682 659.136 825.662 659.218 827.09 659.218" stroke="#DD9E28" stroke-width="2" stroke-linecap="round"/>
<path d="M868.351 658.523H871.863" stroke="#DD9E28" stroke-width="2" stroke-linecap="round"/>
<path d="M265.662 186.448C255.179 178.33 244.641 170.126 235.256 160.741C221.159 176.097 185.17 182.643 169.915 176.097C150.998 167.98 142.373 144.42 138.827 125.806C135.238 106.962 135.147 86.4324 141.926 68.2961C150.461 45.4624 165.896 27.7301 187.484 16.5069C207.35 6.17903 228.904 2.23603 251.123 1.2527C269.487 0.439937 288.45 1.35597 305.942 7.4497C319.598 12.2069 328.293 20.011 331.684 34.485C336.778 56.2309 329.081 77.8705 318.813 96.8637C311.126 111.082 300.343 121.411 287.215 130.607C278.55 136.676 270.568 140.449 260.384 142.83C258.839 143.192 252.961 143.822 252.621 146.201C252.378 147.904 253.56 150.545 254.051 152.024C255.69 156.965 257.666 161.766 259.839 166.495C263.235 173.883 267.407 180.811 271.076 188.048C273.968 193.754 266.647 187.211 265.662 186.448Z" stroke="#DD9E28" stroke-width="2" stroke-linecap="round"/>
<path d="M180.516 84.7267C178.464 86.5458 177.202 88.3221 176.601 91.0939C175.999 93.8672 176.812 97.0442 180.074 94.9756C182.453 93.4669 183.294 90.7502 182.355 88.404" stroke="#DD9E28" stroke-width="2" stroke-linecap="round"/>
<path d="M214.838 77.3718C213.923 80.7956 212.96 86.419 218.516 86.2927C221.963 86.2144 223.18 81.4051 222.023 78.8019C219.481 73.0822 210.67 81.6805 215.179 86.5651C220.058 91.8508 231.612 81.2385 227.301 75.7374C225.366 73.2691 220.879 73.98 219.061 76.0779C217.238 78.1808 217.29 80.9063 217.29 83.5007" stroke="#DD9E28" stroke-width="2" stroke-linecap="round"/>
<path d="M262.644 65.1136C262.496 69.2434 265.169 77.6487 271.156 74.8858C274.246 73.4598 275.58 67.6619 274.357 64.705C273.548 62.7502 269.895 61.9485 268.364 63.4792C266.868 64.9751 267.871 67.6724 268.16 69.4038" stroke="#DD9E28" stroke-width="2" stroke-linecap="round"/>
</svg>
