<svg width="425" height="140" viewBox="0 0 425 140" fill="none" xmlns="http://www.w3.org/2000/svg">
<path d="M196.157 1.54823C169.991 0.126767 171.853 1.54806 144.011 4.90215C120.701 4.90215 103.588 12.2978 80.3364 17.8808C71.9406 19.8966 64.7964 20.1923 51.8464 25.0791C44.6573 27.792 22.8009 40.6132 14.939 48.1139C8.0359 54.6997 9.5656 67.7238 12.3061 72.172C17.1623 80.0544 20.4227 83.3643 26.7705 88.772C47.3219 106.28 98.8236 120.404 121.733 127.385C155.697 137.735 203.838 130.98 238.345 136.148C274.494 141.562 311.258 138.839 347.375 131.589M196.157 1.54823C247.027 0.557768 297.468 5.79826 347.375 20.7655C362.813 25.3952 378.253 30.9543 392.804 40.0616C401.831 45.7109 411.444 52.8366 418.574 63.0593C427.365 75.664 424.827 93.8635 415.652 104.25C408.131 112.765 398.713 118.133 389.829 122.523C375.884 129.413 361.92 128.669 347.375 131.589M196.157 1.54823C170.233 2.05298 144.354 4.17904 118.582 8.4003C93.6859 12.4782 68.382 16.8257 44.0889 26.1999C31.2181 31.1665 16.6375 37.8185 6.04529 50.379C0.400696 57.0726 -0.435852 68.8294 3.19401 79.0348C7.60715 91.4424 14.971 97.9285 23.1012 103.935C37.5797 114.633 53.583 120.166 69.4336 124.177C113.921 135.434 159.834 137.66 204.871 136.384C240.631 135.372 311.656 133.818 347.375 131.589" stroke="#FFF6DE" stroke-opacity="0.48" stroke-width="2" stroke-linecap="round"/>
</svg>
