<svg width="1513" height="356" viewBox="0 0 1513 356" fill="none" xmlns="http://www.w3.org/2000/svg">
<path d="M129.395 30.6568C129.395 60.0297 116.006 86.0431 103.469 111.979C73.4203 174.143 40.7882 234.504 17.2717 299.664C16.9457 300.567 7.76289 334.33 10.5133 324.703C29.8723 256.947 66.028 191.633 97.2648 128.82C113.208 96.7606 135.236 60.6474 141.25 24.5631C142.54 16.8199 154.714 24.2898 160.86 24.6739C172.031 25.3721 182.934 28.129 194.209 28.7733C204.859 29.3818 215.182 30.6568 225.896 30.6568C230.073 30.6568 246.165 27.9089 244.177 34.4238C228.822 84.7549 200.508 130.317 182.133 179.564C175.531 197.256 167.235 214.209 160.528 231.858C155.151 246.008 151.815 260.572 145.792 274.625C138.641 291.312 131.8 308.216 127.401 325.811" stroke="#BD9E6F" stroke-width="20" stroke-linecap="round"/>
<path d="M318.852 18.6907C318.852 38.8244 310.368 56.6286 302.344 74.7523C277.328 131.253 250.423 186.752 223.791 242.494C213.63 263.762 198.507 286.6 195.317 310.521C192.98 328.047 197.094 304.827 199.86 297.78C225.362 232.81 261.845 172.576 286.944 107.547C296.345 83.1881 309.567 60.2852 317.855 35.4205C319.74 29.7652 320.763 16.3438 326.829 13.151C333.558 9.60963 343.058 22.4628 346.329 26.6678C356.869 40.22 358.738 58.3038 358.738 74.9739C358.738 107.816 336.767 138.146 317.744 163.387C303.593 182.165 280.413 189.052 259.024 196.182" stroke="#BD9E6F" stroke-width="20" stroke-linecap="round"/>
<path d="M450.476 36.6393C441.466 39.3425 432.82 58.6308 428.65 65.6672C412.549 92.837 395.457 120.036 384.222 149.649C368.858 190.141 358.739 235.122 358.739 278.724C358.739 286.081 353.16 318.966 368.046 312.516C397.398 299.796 413.977 259.744 428.428 233.852C445.067 204.041 454.982 172.288 468.536 141.229C479.953 115.064 497.862 88.584 498.339 59.0196C498.875 25.7716 471.509 34.645 448.482 34.645" stroke="#BD9E6F" stroke-width="20" stroke-linecap="round"/>
<path d="M500.333 26.668C508.389 37.8576 522.475 46.9615 533.571 55.0312C551.286 67.9151 568.857 80.2258 587.638 91.5931C591.718 94.0626 599.093 92.3128 603.592 92.4794C610.815 92.7469 587.267 123.468 585.865 125.496C555.103 169.992 525.595 215.107 494.793 259.556C487.9 269.503 477.746 279.01 473.964 290.357C472.733 294.047 464.031 304.143 470.418 299.885" stroke="#BD9E6F" stroke-width="20" stroke-linecap="round"/>
<path d="M687.793 24.6748C675.4 46.0816 650.081 64.3224 631.51 79.9609C627.672 83.193 615.909 98.136 610.016 98.4634C602.494 98.8813 611.695 105.857 614.226 109.654C626.596 128.208 636.41 147.525 646.91 167.156C661.62 194.656 674.118 223.205 686.685 251.691C694.497 269.399 701.753 292.159 701.753 311.852" stroke="#BD9E6F" stroke-width="20" stroke-linecap="round"/>
<path d="M616 10.7139C616 45.9497 604.304 80.1265 598.273 114.638C592.502 147.659 589.391 181.084 584.091 214.131C579.889 240.334 576.081 270.038 564.148 293.903" stroke="#BD9E6F" stroke-width="20" stroke-linecap="round"/>
<path d="M823.407 12.709C803.89 73.4273 781.069 134.989 769.118 197.734C763.53 227.072 763.691 257.888 756.709 286.813C755.254 292.839 755.072 299.291 754.05 305.426C752.765 313.138 766.236 309.858 770.891 309.858C794.379 309.858 817.867 309.858 841.355 309.858" stroke="#BD9E6F" stroke-width="20" stroke-linecap="round"/>
<path d="M777.538 162.28C791.745 156.298 807.309 163.349 821.412 156.297" stroke="#BD9E6F" stroke-width="20" stroke-linecap="round"/>
<path d="M827.395 12.7077C843.264 12.7077 859.412 11.8281 875.257 12.8185C885.099 13.4336 893.533 12.7077 903.177 12.7077" stroke="#BD9E6F" stroke-width="20" stroke-linecap="round"/>
<path d="M951.043 26.668C951.043 60.0371 943.855 88.0508 932.319 119.513C921.929 147.849 914.373 175.716 907.168 204.935C902.083 225.561 893.222 245.429 889.663 266.426C887.357 280.031 882.46 292.209 879.359 305.647C877.962 311.701 875.616 317.584 875.26 323.817C875.19 325.033 873.688 328.381 874.595 326.033C879.275 313.919 878.279 296.053 885.086 285.162" stroke="#BD9E6F" stroke-width="20" stroke-linecap="round"/>
<path d="M919.133 162.279C924.742 160.24 929.4 152.234 933.426 148.208C953.648 127.986 980.598 114.503 1005.66 101.453C1039.07 84.0619 1074.8 72.1474 1108.37 55.3633C1116.83 51.1324 1106.35 54.6294 1105.93 54.8093C1096.08 59.0298 1086.71 64.6049 1077.35 69.7665C1051.65 83.9375 1028.09 104.185 1001.56 116.521C973.172 129.727 943.432 147.388 912.818 154.191C909.396 154.952 919.733 155.399 923.122 156.296C931.209 158.437 935.771 162.868 941.513 168.705C956.328 183.763 971.956 202.48 980.956 221.665C991.419 243.967 1001.05 266.607 1008.43 290.135C1009.23 292.67 1012.86 307.679 1012.86 301.879" stroke="#BD9E6F" stroke-width="20" stroke-linecap="round"/>
<path d="M1182.91 32.6699C1182.91 82.9836 1163.1 132.554 1149.01 179.751C1136.7 220.987 1123.75 263.526 1114.67 305.733C1113.84 309.573 1113.81 317.657 1111.54 320.49C1107.71 325.284 1108.45 338.537 1106.64 324.637" stroke="#BD9E6F" stroke-width="20" stroke-linecap="round"/>
<path d="M1128.53 30.6574C1130.35 45.1863 1234.9 28.6631 1250.18 28.6631" stroke="#BD9E6F" stroke-width="20" stroke-linecap="round"/>
<path d="M1306.68 41.6256C1290.93 65.5456 1283.59 94.2345 1274.09 121.86C1263.46 152.807 1255.26 184.621 1247.26 216.615C1240.82 242.368 1234.49 270.624 1233.84 297.587C1233.43 314.842 1233.42 367.196 1257.48 336.228C1270.95 318.891 1279.51 295.369 1289.86 275.437C1299.43 257.001 1305.28 234.812 1311.58 214.646C1316.6 198.553 1318.85 181.593 1324.36 165.669C1331.99 143.619 1341.19 122.45 1348.85 100.448C1353.93 85.8606 1360.49 69.3432 1358.01 53.1931C1356.67 44.4543 1351.5 45.5091 1345.02 42.1179C1335.11 36.9336 1319.52 34.9805 1308.6 34.9805" stroke="#BD9E6F" stroke-width="20" stroke-linecap="round"/>
<path d="M1419.7 32.6514C1419.7 54.873 1419.71 76.4872 1414.27 98.2412C1406.14 130.771 1395.29 163.272 1384.69 195.075C1373.91 227.391 1371.18 260.621 1362.75 293.127C1360.38 302.283 1357.99 311.829 1355.99 320.826C1354.94 325.544 1353.77 337.085 1351.89 325.811" stroke="#BD9E6F" stroke-width="20" stroke-linecap="round"/>
<path d="M1433.31 29.2121C1461.41 29.2121 1484.91 28.0504 1496.5 52.1257C1508.16 76.346 1504.93 115.309 1480.34 134.086C1459.34 150.123 1431.04 161.405 1410.94 177.93C1403.61 183.956 1384.31 189.828 1373.58 189.828" stroke="#BD9E6F" stroke-width="20" stroke-linecap="round"/>
</svg>
