<svg width="1883" height="8581" viewBox="0 0 1883 8581" fill="none" xmlns="http://www.w3.org/2000/svg">
<rect y="8060" width="103" height="77" rx="30" fill="#D9D9D9" fill-opacity="0.12"/>
<rect y="8171" width="103" height="77" rx="30" fill="#D9D9D9" fill-opacity="0.12"/>
<rect y="8282" width="103" height="77" rx="30" fill="#D9D9D9" fill-opacity="0.12"/>
<rect y="8393" width="103" height="77" rx="30" fill="#D9D9D9" fill-opacity="0.12"/>
<rect y="8504" width="103" height="77" rx="30" fill="#D9D9D9" fill-opacity="0.12"/>
<rect x="1780" y="8060" width="103" height="77" rx="30" fill="#D9D9D9" fill-opacity="0.12"/>
<rect x="1780" y="8171" width="103" height="77" rx="30" fill="#D9D9D9" fill-opacity="0.12"/>
<rect x="1780" y="8282" width="103" height="77" rx="30" fill="#D9D9D9" fill-opacity="0.12"/>
<rect x="1780" y="8393" width="103" height="77" rx="30" fill="#D9D9D9" fill-opacity="0.12"/>
<rect x="1780" y="8504" width="103" height="77" rx="30" fill="#D9D9D9" fill-opacity="0.12"/>
<rect y="-39" width="103" height="77" rx="30" fill="#D9D9D9" fill-opacity="0.12"/>
<rect y="72" width="103" height="77" rx="30" fill="#D9D9D9" fill-opacity="0.12"/>
<rect y="183" width="103" height="77" rx="30" fill="#D9D9D9" fill-opacity="0.12"/>
<rect y="294" width="103" height="77" rx="30" fill="#D9D9D9" fill-opacity="0.12"/>
<rect y="405" width="103" height="77" rx="30" fill="#D9D9D9" fill-opacity="0.12"/>
<rect y="516" width="103" height="77" rx="30" fill="#D9D9D9" fill-opacity="0.12"/>
<rect x="1780" y="-39" width="103" height="77" rx="30" fill="#D9D9D9" fill-opacity="0.12"/>
<rect x="1780" y="72" width="103" height="77" rx="30" fill="#D9D9D9" fill-opacity="0.12"/>
<rect x="1780" y="183" width="103" height="77" rx="30" fill="#D9D9D9" fill-opacity="0.12"/>
<rect x="1780" y="294" width="103" height="77" rx="30" fill="#D9D9D9" fill-opacity="0.12"/>
<rect x="1780" y="405" width="103" height="77" rx="30" fill="#D9D9D9" fill-opacity="0.12"/>
<rect x="1780" y="516" width="103" height="77" rx="30" fill="#D9D9D9" fill-opacity="0.12"/>
<rect y="627" width="103" height="77" rx="30" fill="#D9D9D9" fill-opacity="0.12"/>
<rect y="738" width="103" height="77" rx="30" fill="#D9D9D9" fill-opacity="0.12"/>
<rect y="849" width="103" height="77" rx="30" fill="#D9D9D9" fill-opacity="0.12"/>
<rect y="960" width="103" height="77" rx="30" fill="#D9D9D9" fill-opacity="0.12"/>
<rect y="1071" width="103" height="77" rx="30" fill="#D9D9D9" fill-opacity="0.12"/>
<rect y="1182" width="103" height="77" rx="30" fill="#D9D9D9" fill-opacity="0.12"/>
<rect x="1780" y="627" width="103" height="77" rx="30" fill="#D9D9D9" fill-opacity="0.12"/>
<rect x="1780" y="738" width="103" height="77" rx="30" fill="#D9D9D9" fill-opacity="0.12"/>
<rect x="1780" y="849" width="103" height="77" rx="30" fill="#D9D9D9" fill-opacity="0.12"/>
<rect x="1780" y="960" width="103" height="77" rx="30" fill="#D9D9D9" fill-opacity="0.12"/>
<rect x="1780" y="1071" width="103" height="77" rx="30" fill="#D9D9D9" fill-opacity="0.12"/>
<rect x="1780" y="1182" width="103" height="77" rx="30" fill="#D9D9D9" fill-opacity="0.12"/>
<rect y="1293" width="103" height="77" rx="30" fill="#D9D9D9" fill-opacity="0.12"/>
<rect y="1404" width="103" height="77" rx="30" fill="#D9D9D9" fill-opacity="0.12"/>
<rect y="1515" width="103" height="77" rx="30" fill="#D9D9D9" fill-opacity="0.12"/>
<rect y="1626" width="103" height="77" rx="30" fill="#D9D9D9" fill-opacity="0.12"/>
<rect y="1737" width="103" height="77" rx="30" fill="#D9D9D9" fill-opacity="0.12"/>
<rect y="1848" width="103" height="77" rx="30" fill="#D9D9D9" fill-opacity="0.12"/>
<rect x="1780" y="1293" width="103" height="77" rx="30" fill="#D9D9D9" fill-opacity="0.12"/>
<rect x="1780" y="1404" width="103" height="77" rx="30" fill="#D9D9D9" fill-opacity="0.12"/>
<rect x="1780" y="1515" width="103" height="77" rx="30" fill="#D9D9D9" fill-opacity="0.12"/>
<rect x="1780" y="1626" width="103" height="77" rx="30" fill="#D9D9D9" fill-opacity="0.12"/>
<rect x="1780" y="1737" width="103" height="77" rx="30" fill="#D9D9D9" fill-opacity="0.12"/>
<rect x="1780" y="1848" width="103" height="77" rx="30" fill="#D9D9D9" fill-opacity="0.12"/>
<rect y="1959" width="103" height="77" rx="30" fill="#D9D9D9" fill-opacity="0.12"/>
<rect y="2070" width="103" height="77" rx="30" fill="#D9D9D9" fill-opacity="0.12"/>
<rect y="2181" width="103" height="77" rx="30" fill="#D9D9D9" fill-opacity="0.12"/>
<rect y="2292" width="103" height="77" rx="30" fill="#D9D9D9" fill-opacity="0.12"/>
<rect y="2403" width="103" height="77" rx="30" fill="#D9D9D9" fill-opacity="0.12"/>
<rect y="2514" width="103" height="77" rx="30" fill="#D9D9D9" fill-opacity="0.12"/>
<rect x="1780" y="1959" width="103" height="77" rx="30" fill="#D9D9D9" fill-opacity="0.12"/>
<rect x="1780" y="2070" width="103" height="77" rx="30" fill="#D9D9D9" fill-opacity="0.12"/>
<rect x="1780" y="2181" width="103" height="77" rx="30" fill="#D9D9D9" fill-opacity="0.12"/>
<rect x="1780" y="2292" width="103" height="77" rx="30" fill="#D9D9D9" fill-opacity="0.12"/>
<rect x="1780" y="2403" width="103" height="77" rx="30" fill="#D9D9D9" fill-opacity="0.12"/>
<rect x="1780" y="2514" width="103" height="77" rx="30" fill="#D9D9D9" fill-opacity="0.12"/>
<rect y="2625" width="103" height="77" rx="30" fill="#D9D9D9" fill-opacity="0.12"/>
<rect y="2736" width="103" height="77" rx="30" fill="#D9D9D9" fill-opacity="0.12"/>
<rect y="2847" width="103" height="77" rx="30" fill="#D9D9D9" fill-opacity="0.12"/>
<rect y="2958" width="103" height="77" rx="30" fill="#D9D9D9" fill-opacity="0.12"/>
<rect y="3069" width="103" height="77" rx="30" fill="#D9D9D9" fill-opacity="0.12"/>
<rect y="3180" width="103" height="77" rx="30" fill="#D9D9D9" fill-opacity="0.12"/>
<rect x="1780" y="2625" width="103" height="77" rx="30" fill="#D9D9D9" fill-opacity="0.12"/>
<rect x="1780" y="2736" width="103" height="77" rx="30" fill="#D9D9D9" fill-opacity="0.12"/>
<rect x="1780" y="2847" width="103" height="77" rx="30" fill="#D9D9D9" fill-opacity="0.12"/>
<rect x="1780" y="2958" width="103" height="77" rx="30" fill="#D9D9D9" fill-opacity="0.12"/>
<rect x="1780" y="3069" width="103" height="77" rx="30" fill="#D9D9D9" fill-opacity="0.12"/>
<rect x="1780" y="3180" width="103" height="77" rx="30" fill="#D9D9D9" fill-opacity="0.12"/>
<rect y="3291" width="103" height="77" rx="30" fill="#D9D9D9" fill-opacity="0.12"/>
<rect y="3402" width="103" height="77" rx="30" fill="#D9D9D9" fill-opacity="0.12"/>
<rect y="3513" width="103" height="77" rx="30" fill="#D9D9D9" fill-opacity="0.12"/>
<rect y="3624" width="103" height="77" rx="30" fill="#D9D9D9" fill-opacity="0.12"/>
<rect y="3735" width="103" height="77" rx="30" fill="#D9D9D9" fill-opacity="0.12"/>
<rect y="3846" width="103" height="77" rx="30" fill="#D9D9D9" fill-opacity="0.12"/>
<rect x="1780" y="3291" width="103" height="77" rx="30" fill="#D9D9D9" fill-opacity="0.12"/>
<rect x="1780" y="3402" width="103" height="77" rx="30" fill="#D9D9D9" fill-opacity="0.12"/>
<rect x="1780" y="3513" width="103" height="77" rx="30" fill="#D9D9D9" fill-opacity="0.12"/>
<rect x="1780" y="3624" width="103" height="77" rx="30" fill="#D9D9D9" fill-opacity="0.12"/>
<rect x="1780" y="3735" width="103" height="77" rx="30" fill="#D9D9D9" fill-opacity="0.12"/>
<rect x="1780" y="3846" width="103" height="77" rx="30" fill="#D9D9D9" fill-opacity="0.12"/>
<rect y="3957" width="103" height="77" rx="30" fill="#D9D9D9" fill-opacity="0.12"/>
<rect y="4068" width="103" height="77" rx="30" fill="#D9D9D9" fill-opacity="0.12"/>
<rect y="4179" width="103" height="77" rx="30" fill="#D9D9D9" fill-opacity="0.12"/>
<rect y="4290" width="103" height="77" rx="30" fill="#D9D9D9" fill-opacity="0.12"/>
<rect y="4401" width="103" height="77" rx="30" fill="#D9D9D9" fill-opacity="0.12"/>
<rect y="4512" width="103" height="77" rx="30" fill="#D9D9D9" fill-opacity="0.12"/>
<rect x="1780" y="3957" width="103" height="77" rx="30" fill="#D9D9D9" fill-opacity="0.12"/>
<rect x="1780" y="4068" width="103" height="77" rx="30" fill="#D9D9D9" fill-opacity="0.12"/>
<rect x="1780" y="4179" width="103" height="77" rx="30" fill="#D9D9D9" fill-opacity="0.12"/>
<rect x="1780" y="4290" width="103" height="77" rx="30" fill="#D9D9D9" fill-opacity="0.12"/>
<rect x="1780" y="4401" width="103" height="77" rx="30" fill="#D9D9D9" fill-opacity="0.12"/>
<rect x="1780" y="4512" width="103" height="77" rx="30" fill="#D9D9D9" fill-opacity="0.12"/>
<rect y="4623" width="103" height="77" rx="30" fill="#D9D9D9" fill-opacity="0.12"/>
<rect y="4734" width="103" height="77" rx="30" fill="#D9D9D9" fill-opacity="0.12"/>
<rect y="4845" width="103" height="77" rx="30" fill="#D9D9D9" fill-opacity="0.12"/>
<rect y="4956" width="103" height="77" rx="30" fill="#D9D9D9" fill-opacity="0.12"/>
<rect y="5067" width="103" height="77" rx="30" fill="#D9D9D9" fill-opacity="0.12"/>
<rect y="5178" width="103" height="77" rx="30" fill="#D9D9D9" fill-opacity="0.12"/>
<rect x="1780" y="4623" width="103" height="77" rx="30" fill="#D9D9D9" fill-opacity="0.12"/>
<rect x="1780" y="4734" width="103" height="77" rx="30" fill="#D9D9D9" fill-opacity="0.12"/>
<rect x="1780" y="4845" width="103" height="77" rx="30" fill="#D9D9D9" fill-opacity="0.12"/>
<rect x="1780" y="4956" width="103" height="77" rx="30" fill="#D9D9D9" fill-opacity="0.12"/>
<rect x="1780" y="5067" width="103" height="77" rx="30" fill="#D9D9D9" fill-opacity="0.12"/>
<rect x="1780" y="5178" width="103" height="77" rx="30" fill="#D9D9D9" fill-opacity="0.12"/>
<rect y="5289" width="103" height="77" rx="30" fill="#D9D9D9" fill-opacity="0.12"/>
<rect y="5400" width="103" height="77" rx="30" fill="#D9D9D9" fill-opacity="0.12"/>
<rect y="5511" width="103" height="77" rx="30" fill="#D9D9D9" fill-opacity="0.12"/>
<rect y="5622" width="103" height="77" rx="30" fill="#D9D9D9" fill-opacity="0.12"/>
<rect y="5733" width="103" height="77" rx="30" fill="#D9D9D9" fill-opacity="0.12"/>
<rect y="5844" width="103" height="77" rx="30" fill="#D9D9D9" fill-opacity="0.12"/>
<rect y="5955" width="103" height="77" rx="30" fill="#D9D9D9" fill-opacity="0.12"/>
<rect x="1780" y="5289" width="103" height="77" rx="30" fill="#D9D9D9" fill-opacity="0.12"/>
<rect x="1780" y="5400" width="103" height="77" rx="30" fill="#D9D9D9" fill-opacity="0.12"/>
<rect x="1780" y="5511" width="103" height="77" rx="30" fill="#D9D9D9" fill-opacity="0.12"/>
<rect x="1780" y="5622" width="103" height="77" rx="30" fill="#D9D9D9" fill-opacity="0.12"/>
<rect x="1780" y="5733" width="103" height="77" rx="30" fill="#D9D9D9" fill-opacity="0.12"/>
<rect x="1780" y="5844" width="103" height="77" rx="30" fill="#D9D9D9" fill-opacity="0.12"/>
<rect x="1780" y="5955" width="103" height="77" rx="30" fill="#D9D9D9" fill-opacity="0.12"/>
<rect y="6062" width="103" height="77" rx="30" fill="#D9D9D9" fill-opacity="0.12"/>
<rect y="6173" width="103" height="77" rx="30" fill="#D9D9D9" fill-opacity="0.12"/>
<rect y="6284" width="103" height="77" rx="30" fill="#D9D9D9" fill-opacity="0.12"/>
<rect y="6395" width="103" height="77" rx="30" fill="#D9D9D9" fill-opacity="0.12"/>
<rect y="6506" width="103" height="77" rx="30" fill="#D9D9D9" fill-opacity="0.12"/>
<rect y="6617" width="103" height="77" rx="30" fill="#D9D9D9" fill-opacity="0.12"/>
<rect x="1780" y="6062" width="103" height="77" rx="30" fill="#D9D9D9" fill-opacity="0.12"/>
<rect x="1780" y="6173" width="103" height="77" rx="30" fill="#D9D9D9" fill-opacity="0.12"/>
<rect x="1780" y="6284" width="103" height="77" rx="30" fill="#D9D9D9" fill-opacity="0.12"/>
<rect x="1780" y="6395" width="103" height="77" rx="30" fill="#D9D9D9" fill-opacity="0.12"/>
<rect x="1780" y="6506" width="103" height="77" rx="30" fill="#D9D9D9" fill-opacity="0.12"/>
<rect x="1780" y="6617" width="103" height="77" rx="30" fill="#D9D9D9" fill-opacity="0.12"/>
<rect y="6728" width="103" height="77" rx="30" fill="#D9D9D9" fill-opacity="0.12"/>
<rect y="6839" width="103" height="77" rx="30" fill="#D9D9D9" fill-opacity="0.12"/>
<rect y="6950" width="103" height="77" rx="30" fill="#D9D9D9" fill-opacity="0.12"/>
<rect y="7061" width="103" height="77" rx="30" fill="#D9D9D9" fill-opacity="0.12"/>
<rect y="7172" width="103" height="77" rx="30" fill="#D9D9D9" fill-opacity="0.12"/>
<rect y="7283" width="103" height="77" rx="30" fill="#D9D9D9" fill-opacity="0.12"/>
<rect x="1780" y="6728" width="103" height="77" rx="30" fill="#D9D9D9" fill-opacity="0.12"/>
<rect x="1780" y="6839" width="103" height="77" rx="30" fill="#D9D9D9" fill-opacity="0.12"/>
<rect x="1780" y="6950" width="103" height="77" rx="30" fill="#D9D9D9" fill-opacity="0.12"/>
<rect x="1780" y="7061" width="103" height="77" rx="30" fill="#D9D9D9" fill-opacity="0.12"/>
<rect x="1780" y="7172" width="103" height="77" rx="30" fill="#D9D9D9" fill-opacity="0.12"/>
<rect x="1780" y="7283" width="103" height="77" rx="30" fill="#D9D9D9" fill-opacity="0.12"/>
<rect y="7394" width="103" height="77" rx="30" fill="#D9D9D9" fill-opacity="0.12"/>
<rect y="7505" width="103" height="77" rx="30" fill="#D9D9D9" fill-opacity="0.12"/>
<rect y="7616" width="103" height="77" rx="30" fill="#D9D9D9" fill-opacity="0.12"/>
<rect y="7727" width="103" height="77" rx="30" fill="#D9D9D9" fill-opacity="0.12"/>
<rect y="7838" width="103" height="77" rx="30" fill="#D9D9D9" fill-opacity="0.12"/>
<rect y="7949" width="103" height="77" rx="30" fill="#D9D9D9" fill-opacity="0.12"/>
<rect x="1780" y="7394" width="103" height="77" rx="30" fill="#D9D9D9" fill-opacity="0.12"/>
<rect x="1780" y="7505" width="103" height="77" rx="30" fill="#D9D9D9" fill-opacity="0.12"/>
<rect x="1780" y="7616" width="103" height="77" rx="30" fill="#D9D9D9" fill-opacity="0.12"/>
<rect x="1780" y="7727" width="103" height="77" rx="30" fill="#D9D9D9" fill-opacity="0.12"/>
<rect x="1780" y="7838" width="103" height="77" rx="30" fill="#D9D9D9" fill-opacity="0.12"/>
<rect x="1780" y="7949" width="103" height="77" rx="30" fill="#D9D9D9" fill-opacity="0.12"/>
</svg>
