<svg width="437" height="99" viewBox="0 0 437 99" fill="none" xmlns="http://www.w3.org/2000/svg">
<path d="M37.467 8.55448C37.467 16.662 33.602 23.8422 29.9827 31.0011C21.3082 48.1594 11.888 64.8201 5.09921 82.8056C5.0051 83.0549 2.35419 92.374 3.14819 89.7169C8.73675 71.0148 19.1742 52.987 28.1916 35.6494C32.7941 26.8004 39.1531 16.8325 40.8893 6.87251C41.2618 4.73524 44.7761 6.79706 46.5505 6.9031C49.7753 7.09581 52.9226 7.85676 56.1776 8.0346C59.2519 8.20257 62.2321 8.55448 65.325 8.55448C66.5308 8.55448 71.1762 7.796 70.6024 9.59424C66.1696 23.4866 57.996 36.0627 52.6914 49.6556C50.7856 54.5391 48.3906 59.2184 46.4545 64.0899C44.9023 67.9955 43.9392 72.0155 42.2006 75.8942C40.1361 80.5002 38.1612 85.166 36.8913 90.0227" stroke="#DD9E28" stroke-width="5" stroke-linecap="round"/>
<path d="M92.1578 5.25363C92.1578 10.8109 89.7087 15.7252 87.3922 20.7277C80.1707 36.323 72.4038 51.6418 64.7156 67.0276C61.7822 72.898 57.4164 79.2018 56.4957 85.8044C55.8211 90.6419 57.0085 84.2327 57.807 82.2876C65.169 64.3547 75.7009 47.729 82.9464 29.7797C85.6605 23.0562 89.4773 16.7345 91.87 9.87139C92.4142 8.31042 92.7094 4.60585 94.4607 3.72457C96.4031 2.74709 99.1457 6.29482 100.09 7.45547C103.133 11.1961 103.672 16.1876 103.672 20.7889C103.672 29.8539 97.3295 38.2255 91.838 45.1927C87.7527 50.3758 81.0613 52.2767 74.8865 54.2447" stroke="#DD9E28" stroke-width="5" stroke-linecap="round"/>
<path d="M130.155 10.2066C127.554 10.9527 125.058 16.2766 123.854 18.2188C119.206 25.7182 114.272 33.2256 111.029 41.3994C106.594 52.5759 103.672 64.9916 103.672 77.0264C103.672 79.0573 102.062 88.1342 106.359 86.3537C114.832 82.8429 119.618 71.7878 123.79 64.6411C128.593 56.4126 131.456 47.6482 135.368 39.0752C138.664 31.8532 143.834 24.5443 143.972 16.384C144.127 7.20685 136.227 9.65609 129.579 9.65609" stroke="#DD9E28" stroke-width="5" stroke-linecap="round"/>
<path d="M144.549 7.45448C146.875 10.543 150.941 13.0559 154.144 15.2833C159.259 18.8395 164.331 22.2375 169.753 25.3751C170.93 26.0567 173.06 25.5737 174.358 25.6197C176.443 25.6935 169.646 34.1732 169.241 34.7329C160.36 47.0147 151.842 59.4672 142.95 71.7361C140.96 74.4815 138.029 77.1057 136.937 80.2377C136.582 81.2563 134.07 84.0429 135.914 82.8677" stroke="#DD9E28" stroke-width="5" stroke-linecap="round"/>
<path d="M198.667 6.90647C195.089 12.8151 187.78 17.85 182.419 22.1665C181.311 23.0586 177.915 27.1832 176.214 27.2735C174.043 27.3889 176.699 29.3142 177.429 30.3622C181 35.4835 183.834 40.8154 186.865 46.2339C191.111 53.8244 194.719 61.7046 198.347 69.5673C200.602 74.4549 202.697 80.7371 202.697 86.1729" stroke="#DD9E28" stroke-width="5" stroke-linecap="round"/>
<path d="M177.94 3.05035C177.94 12.7761 174.564 22.2096 172.823 31.7355C171.157 40.8497 170.259 50.0758 168.729 59.1974C167.516 66.4299 166.416 74.6288 162.972 81.2158" stroke="#DD9E28" stroke-width="5" stroke-linecap="round"/>
<path d="M237.814 3.60439C232.18 20.3638 225.592 37.3561 222.142 54.6749C220.529 62.7727 220.575 71.2786 218.56 79.2622C218.14 80.9256 218.087 82.7065 217.792 84.3998C217.421 86.5286 221.31 85.6231 222.654 85.6231C229.434 85.6231 236.215 85.6231 242.996 85.6231" stroke="#DD9E28" stroke-width="5" stroke-linecap="round"/>
<path d="M224.572 44.8869C228.674 43.2358 233.167 45.1819 237.238 43.2355" stroke="#DD9E28" stroke-width="5" stroke-linecap="round"/>
<path fill-rule="evenodd" clip-rule="evenodd" d="M243.538 6.04752C242.042 6.07291 240.523 6.09869 238.967 6.09869C237.586 6.09869 236.467 4.9794 236.467 3.59869C236.467 2.21797 237.586 1.09869 238.967 1.09869C240.34 1.09869 241.762 1.07493 243.21 1.05073C246.402 0.997398 249.724 0.941906 252.933 1.13372C254.674 1.23773 256.144 1.19713 257.756 1.15263C258.708 1.12634 259.709 1.09869 260.844 1.09869C262.225 1.09869 263.344 2.21797 263.344 3.59869C263.344 4.9794 262.225 6.09869 260.844 6.09869C259.995 6.09869 259.114 6.1216 258.207 6.14519C256.434 6.19133 254.563 6.24002 252.635 6.12482C249.616 5.94441 246.625 5.99516 243.538 6.04752Z" fill="#DD9E28"/>
<path d="M274.66 7.45448C274.66 16.665 272.585 24.3973 269.255 33.0815C266.256 40.9026 264.075 48.5947 261.995 56.6596C260.527 62.3527 257.969 67.8366 256.941 73.6321C256.276 77.3876 254.862 80.7488 253.967 84.4579C253.563 86.1291 252.886 87.7528 252.783 89.4732C252.763 89.8089 252.33 90.7331 252.592 90.0848C253.943 86.7411 253.655 81.8098 255.62 78.8038" stroke="#DD9E28" stroke-width="5" stroke-linecap="round"/>
<path d="M265.449 44.8849C267.068 44.3219 268.412 42.1123 269.574 41.0011C275.412 35.4194 283.192 31.6976 290.428 28.0958C300.072 23.2954 310.387 20.0068 320.077 15.3741C322.52 14.2063 319.495 15.1715 319.374 15.2211C316.531 16.3861 313.824 17.9249 311.122 19.3496C303.703 23.2611 296.901 28.8499 289.245 32.2549C281.048 35.8999 272.463 40.7746 263.625 42.6525C262.638 42.8624 265.622 42.9859 266.6 43.2335C268.935 43.8244 270.251 45.0475 271.909 46.6586C276.186 50.8148 280.697 55.981 283.296 61.2764C286.316 67.4324 289.095 73.6814 291.228 80.1756C291.457 80.8753 292.507 85.018 292.507 83.4172" stroke="#DD9E28" stroke-width="5" stroke-linecap="round"/>
<path d="M341.595 9.11054C341.595 22.9981 335.877 36.6805 331.81 49.7077C328.257 61.0897 324.517 72.8312 321.896 84.4813C321.657 85.541 321.649 87.7724 320.995 88.5544C319.888 89.8775 320.102 93.5355 319.578 89.699" stroke="#DD9E28" stroke-width="5" stroke-linecap="round"/>
<path d="M325.898 8.55495C326.423 12.5652 356.604 8.00449 361.017 8.00449" stroke="#DD9E28" stroke-width="5" stroke-linecap="round"/>
<path d="M377.327 11.5811C372.781 18.1834 370.66 26.1021 367.92 33.7272C364.851 42.2693 362.482 51.0506 360.173 59.8814C358.315 66.9898 356.487 74.7891 356.3 82.2314C356.18 86.9941 356.179 101.445 363.125 92.8968C367.012 88.1117 369.482 81.6191 372.47 76.1174C375.233 71.0287 376.924 64.9041 378.741 59.3379C380.192 54.8959 380.839 50.2148 382.43 45.8193C384.634 39.7333 387.29 33.8902 389.501 27.817C390.967 23.7908 392.862 19.2316 392.145 14.7739C391.757 12.3618 390.265 12.653 388.394 11.7169C385.534 10.286 381.032 9.74687 377.881 9.74687" stroke="#DD9E28" stroke-width="5" stroke-linecap="round"/>
<path d="M409.952 9.10653C409.952 15.2401 409.955 21.2061 408.385 27.2106C406.037 36.1893 402.905 45.1604 399.845 53.9385C396.735 62.8585 395.945 72.0304 393.512 81.0029C392.827 83.5299 392.138 86.1649 391.561 88.6482C391.258 89.9506 390.92 93.1361 390.378 90.0243" stroke="#DD9E28" stroke-width="5" stroke-linecap="round"/>
<path d="M413.88 8.15753C421.992 8.15753 428.777 7.83688 432.123 14.4821C435.488 21.1674 434.557 31.9219 427.458 37.1047C421.395 41.5313 413.226 44.6453 407.425 49.2066C405.309 50.8698 399.737 52.4905 396.637 52.4905" stroke="#DD9E28" stroke-width="5" stroke-linecap="round"/>
</svg>
