<svg width="372" height="323" viewBox="0 0 372 323" fill="none" xmlns="http://www.w3.org/2000/svg">
<g opacity="0.9">
<g opacity="0.9">
<path d="M117.089 91.1608C119.799 91.3431 135.122 93.5942 135.122 93.5942C135.122 93.5942 152.815 95.9841 166.01 97.6688C173.944 98.6819 181.06 98.885 188.663 100.827C197.673 103.128 206.797 105.334 215.979 107.166C224.479 108.861 233.565 109.189 242.251 110.217C250.199 111.158 257.307 114.368 265.3 115.032C272.38 115.621 279.74 116.531 286.268 118.82C291.83 120.771 298.333 119.528 304.135 120.844C309.886 122.148 311.556 122.185 312.913 127.249C314.15 131.867 313.324 137.073 312.731 141.893C311.325 153.325 306.477 164.663 302.39 175.621C296.668 190.966 289.784 205.726 282.879 220.779C278.062 231.279 277.032 241.62 274.201 252.439C272.376 259.412 268.918 268.276 260.378 270.414C257.08 271.239 253.6 271 250.302 270.807C246.309 270.574 243.09 271.307 239.113 270.418C229.231 268.207 218.41 269.054 208.318 267.642C202.409 266.815 196.398 267.95 190.437 267.099C184.74 266.286 178.574 266.186 172.745 266.65C157.797 267.841 143.025 264.195 128.367 262.829C121.338 262.173 114.463 260.747 107.409 260.3C101.126 259.902 95.1691 260.336 88.942 259.41C78.2073 257.813 67.6569 256.013 56.8215 254.755C49.7308 253.931 44.956 251.712 44.3445 245.268C43.6443 237.889 42.8842 230.915 44.1347 223.341C46.3045 210.199 47.6348 196.996 49.8073 183.837C51.3444 174.527 54.198 165.825 57.155 156.714C60.9044 145.161 63.5904 133.42 67.7886 121.935C70.3207 115.007 71.8443 107.823 74.1972 100.863L75.0709 95.9464C75.6985 92.6759 74.418 91.6967 77.2984 90.9249C77.2984 90.9249 91.1352 89.3969 96.469 90.2128C101.193 90.9355 112.409 90.4449 117.089 91.1608ZM117.089 91.1608C114.931 91.0156 119.198 91.4833 117.089 91.1608Z" stroke="#DD9E28" stroke-width="3" stroke-linecap="round"/>
<path d="M316.142 37.0954C302.579 40.7295 284.702 41.0205 270.754 42.8951C261.797 44.099 253.15 45.5396 244.293 47.2117C234.68 49.0265 226.239 50.6176 215.569 51.0609C215.569 51.0609 202.313 52.2022 190.545 53.3125C182.469 54.0744 175.191 54.8599 167.06 55.2459C157.051 55.7211 148.821 55.7515 138.87 56.8497C130.61 57.7611 113.611 58.93 105.341 59.6597C102.416 59.9178 70.5594 62.0045 70.8074 63.6007C71.1156 65.5841 70.3576 65.5855 71.3827 74.9328C71.9955 77.4381 73.9788 90.5787 77.0577 90.5907C86.0547 89.5631 101.394 89.7067 107.111 88.1748C112.412 86.7542 118.316 87.6477 123.797 87.1036C131.311 86.3577 138.765 84.9554 146.385 84.8984C153.718 84.8435 160.958 83.4124 168.352 83.4412C173.327 83.4606 178.226 84.5723 183.211 84.2913C200.334 83.3262 222.427 79.9177 239.632 81.1825C239.632 81.1825 263.409 78.9074 290.328 77.3287L317.928 72.933C320.066 70.809 318.882 66.9284 318.914 64.0348C318.974 58.5214 317.513 53.0651 317.458 47.5594C317.417 43.4266 317.792 40.7203 316.142 37.0954ZM316.142 37.0954C316.861 36.9029 318.503 45.9076 316.142 37.0954Z" stroke="#DD9E28" stroke-width="3" stroke-linecap="round"/>
<path d="M70.7618 115.923C70.7618 115.923 82.6782 117.146 89.158 119.712C94.151 121.689 101.479 120.947 106.693 122.464C114.53 124.744 122.937 125.435 131.305 126.425C138.422 127.268 144.274 129.828 151.49 129.993C160.207 130.193 169.989 133.163 178.756 132.523C185.671 132.018 190.128 133.319 196.925 134.141C203.55 134.942 212.984 137.585 219.88 137.072C229.981 136.321 238.912 137.462 248.639 139.604C253.071 140.579 255.956 140.847 260.314 141.806C265.581 142.966 271.479 142.091 276.415 143.979C284.835 147.198 292.72 145.589 301.397 148.961C307.303 149.039 314.87 148.595 309.103 150.14" stroke="#DD9E28" stroke-width="3" stroke-linecap="round"/>
</g>
<path d="M80.8824 167.182C80.8824 167.182 110.92 171.056 117.668 171.771C145.455 174.714 174.706 179.032 202.945 178.543C211.527 178.395 219.713 175.829 228.338 176.333C236.973 176.838 246.042 176.993 254.574 177.936C260.328 178.573 265.781 180.331 271.544 180.993" stroke="#DD9E28" stroke-width="3" stroke-linecap="round"/>
<path d="M104.805 195.801C104.805 195.801 121.508 198.164 126.511 198.389C152.189 199.544 177.811 201.168 203.444 202.645C207.046 202.852 231.138 206.709 219.336 204.033" stroke="#DD9E28" stroke-width="3" stroke-linecap="round"/>
</g>
<path opacity="0.9" d="M117.369 62.6233C117.82 62.5539 118.799 62.7676 119.094 63.0403C124.09 67.6452 128.825 72.5479 133.335 77.5471C135.144 79.5529 137.263 81.256 139.155 83.17C141.628 85.6716 139.115 82.7313 138.014 81.7167" stroke="#DD9E28" stroke-width="3" stroke-linecap="round"/>
<path opacity="0.9" d="M194.435 52.9684C195.541 57.0989 199.003 60.6558 201.631 64.037C205.235 68.674 209.268 72.9614 213.671 76.9833C215.339 78.506 217.233 79.6584 218.592 81.4302C220.085 83.3749 216.766 79.4668 216.482 79.1619" stroke="#DD9E28" stroke-width="3" stroke-linecap="round"/>
<path opacity="0.9" d="M260.161 45.9084C260.379 46.4611 260.804 46.8086 261.239 47.2319C265.22 51.0996 268.727 55.342 272.759 59.1695C276.395 62.6205 280.423 65.8203 284.18 69.1793C285.863 70.6834 288.218 74.3372 290.514 75.0556C292.439 75.658 291.345 76.3142 290.043 77.0383" stroke="#DD9E28" stroke-width="3" stroke-linecap="round"/>
<path opacity="0.9" d="M109.137 119.797C115.998 116.325 121.292 108.871 126.079 103.36C128.038 101.103 130.016 98.8685 132.188 96.7635C135.216 93.8276 132.364 97.375 131.463 98.4233" stroke="#DD9E28" stroke-width="3" stroke-linecap="round"/>
<path opacity="0.9" d="M184.493 129.946C185.788 130.24 188.523 125.296 188.825 124.925C192.679 120.198 196.543 115.818 201.789 112.339C203.894 110.943 205.854 109.27 207.63 107.549C209.24 105.99 209.113 106.286 208.111 107.787" stroke="#DD9E28" stroke-width="3" stroke-linecap="round"/>
<path opacity="0.9" d="M262.522 140.698C262.159 141.346 262.992 140.522 263.069 140.454C266.641 137.292 270.333 134.245 273.882 131.058C276.795 128.443 279.796 125.818 282.534 123.048C282.834 122.744 282.685 122.469 282.594 122.128" stroke="#DD9E28" stroke-width="3" stroke-linecap="round"/>
</svg>
