<?xml version="1.0" encoding="utf-8"?>
<!-- Generator: Adobe Illustrator 27.0.1, SVG Export Plug-In . SVG Version: 6.00 Build 0)  -->
<svg version="1.1" id="Layer_1" xmlns="http://www.w3.org/2000/svg" xmlns:xlink="http://www.w3.org/1999/xlink" x="0px" y="0px"
	 viewBox="0 0 1028.5 231.2" style="enable-background:new 0 0 1028.5 231.2;" xml:space="preserve">
<style type="text/css">
	.st0{fill:none;stroke:#DD9E28;stroke-width:2.4301;stroke-linecap:round;}
</style>
<path class="st0" d="M3,78.5C3,83,3.8,92.1,3.1,96.6C0.9,113.9,3,131.3,3,148.6c0,8.2,0,21.5,0,21.5s0,15.4,0,22.5
	c0,23.2,0,14.7,0,14.7s0.2,15.9,18.9,18c6,0.7,26.3,0,26.3,0s11.1,0,20.5,0c3.3,0,12.5-0.5,16.5,0c22.1,2.8,44.1-1.2,66.2,0
	c22.1,1.2,44.5,3.1,66.6,3.1c20.7,0,41.4-0.8,62.1-0.8c28.4,0,56.8,0.8,85.3,0.8c52.7,0,105.3-2.3,158-2.3c21.9,0,43.7,1.6,65.6,1.6
	c28.2,0,57.1-1.4,85.2,0.9c20.7,1.7,41.9,0.6,62.7,0.6c25,0,50.1-2.1,75.1-2.3c18.8-0.2,42.2-0.6,60.8,0.8
	c21.9,1.7,38.5,0.8,60.4,0.8c17.9,0,50.4,2.6,67.8-0.8c10.4-2,11.9-1.6,17.7-9.1c1.7-3.2,2.2-6.5,3.7-9.7c1.7-3.7,0.4-15.8,1.6-19.8
	c0.9-3.2,0.4-7.1,0.4-10.4c0-4.5,0.8-8.9,0.8-13.4c0-9.2,0-18.3,0-27.5c0-17.4-4.2-30.6-1.2-47.8c1.4-8.1,1.2-20.5,1.2-28.7
	c0-6.1,2-33.1-1.2-38.7c-8.6-15.2-20.5-10.4-38.4-11.2c-10-0.5-19.1,0-29.5,0c-17,0-33.9,0-50.9,0c-52.9,0-105.9,0.8-158.9,0.8
	c-35.3,0-70.6,0.1-105.9,0c-24.5,0-49.1-0.4-73.6-0.8C543.4,10.9,520.3,8.9,497,8c-30-1.2-59.8-3.4-89.8-4.7
	c-29-1.2-57.5,0.1-86.4,0.3c-23.5,0.1-47.1,1.6-70.6,1.6c-20,0-45.3-1.6-65.4-1.6c-35.1,0-51.2-0.3-86.3-0.3c-8.6,0-30.2-1.5-39.4,0
	c0,0-18-1.4-25.5,0c-10.9,2-19.6,2-27.5,13.1c-5,7-2,18-3.3,26.3c-1.2,7.1,0.8,16,0.8,23.3c0,2.6-0.8,5.2-0.8,8.1
	C3,75.6,3,77,3,78.5z"/>
</svg>
