<svg width="1920" height="1431" viewBox="0 0 1920 1431" fill="none" xmlns="http://www.w3.org/2000/svg">
<path d="M-2.24709 94.0646C-2.24709 112.194 14.7284 120.876 33.3911 130.174C50.327 138.612 66.986 145.942 86.5057 149.59C110.385 154.053 134.07 156.127 158.582 157.664C192.045 159.763 227.318 161.682 255.787 145.144C283.116 129.269 315.198 100.905 314.384 72.4714C314.127 63.4826 300.714 60.9085 291.311 60.1325C281.223 59.3 272.132 58.0004 266.638 65.7576C255.754 81.1272 250.437 99.8568 253.046 117.472C256.369 139.908 290.912 149.365 314.042 156.122C340.897 163.968 368.932 170.984 397.769 167.917C439.317 163.497 479.189 149.944 519.304 140.698C608.951 120.038 696.862 93.145 783.62 65.9391C877.544 36.4861 972.511 23.6477 1071.24 10.6861C1115.59 4.86291 1160.33 3.27264 1205.22 2.70208C1238.88 2.27437 1272.54 0.647939 1306.2 1.06899C1340.2 1.49425 1365.05 8.99953 1396.21 18.6701C1409.14 22.6857 1423.88 25.942 1435.39 32.3699C1468.24 50.7169 1498 71.3341 1524.48 95.3347C1535.22 105.065 1542.9 116.708 1552.58 127.089C1569.18 144.891 1589.34 160.402 1606.27 177.987C1630.56 203.223 1656.16 228.076 1694.45 239.773C1719.24 247.347 1744.16 251.739 1770.75 248.301C1783.35 246.672 1795.48 242.823 1807.42 239.41C1819.61 235.924 1839.45 236.38 1849 228.795C1861.44 218.913 1872.21 208.412 1886.8 199.853C1903.59 190.009 1917.67 177.211 1932.95 166.284C1938.2 162.535 1947.49 175.927 1948.71 177.534C1963.74 197.316 1967.57 218.244 1970.42 240.861C1973.1 262.175 1967.39 285.434 1974.64 306.185C1979.14 319.055 1977.73 334.47 1977.73 347.738C1977.73 360.475 1991.98 322.937 1992.35 321.972C2001.58 298.07 2004.64 272.603 2014.28 249.027C2016.77 242.934 2019.67 236.726 2023.87 231.244C2025.51 229.11 2038.36 212.59 2042.61 213.553C2051.18 215.497 2049.69 240.03 2049.69 244.944C2049.69 259.612 2049.69 274.279 2049.69 288.947C2049.69 333.352 2044.55 377.794 2046.03 422.135C2047.63 469.818 2053.8 517.179 2053.8 564.94C2053.8 610.737 2051.98 656.822 2054.83 702.573C2056.11 723.094 2057 744.106 2057 764.359C2054.83 817.142 1970.78 798.717 1786.24 816.81C1561.04 838.89 1072.65 906.858 837.5 754C572.525 581.753 409.19 585.283 361.787 634.553C314.384 683.823 138.718 805.669 145.964 1004.57C158.582 1350.91 -29.4424 1389.24 -52 1430" stroke="#201818" stroke-width="2" stroke-linecap="round"/>
</svg>
