<svg width="158" height="158" viewBox="0 0 158 158" fill="none" xmlns="http://www.w3.org/2000/svg">
<path opacity="0.9" d="M68.8424 80.8709C69.7686 84.1257 71.3598 87.4392 74.1576 89.6631C76.678 91.6666 79.1717 90.5162 81.1771 88.5366C83.1721 86.5673 84.9013 82.8684 84.1814 80.1291M79.0052 54.3105C78.3238 60.7235 76.7898 66.8842 75.1055 73.1039M68.8424 54.9075V59.3585M90.1619 55.156V59.8543M64.6722 12.3105C60.5204 18.0365 58.1285 25.398 57.2771 32.2853C57.0264 34.3133 56.7174 37.6289 59.0103 39.0718C62.0265 40.9697 67.8513 39.6115 70.8106 38.6871C74.3152 37.5924 77.6762 35.9772 80.8001 34.0179M80.8001 34.0179C83.5203 32.3116 86.0607 30.3444 88.3594 28.2327C89.6822 27.0175 91.7369 25.0649 92.4903 23.3145C93.8906 20.0612 89.9988 20.9862 88.4461 21.9545C84.4071 24.4731 81.3227 29.455 80.8001 34.0179ZM80.8001 34.0179C80.797 34.0448 80.794 34.0718 80.7911 34.0987C80.1732 39.819 84.0425 43.2828 89.9771 42.5474C95.21 41.8991 100.26 39.2316 104.449 36.2967C106.118 35.1278 107.701 33.8204 108.609 32.093M89.528 66.0336C87.6693 68.2241 88.1633 70.4416 90.1666 72.3182M90.1666 72.3182C90.3836 72.5215 90.6183 72.7207 90.8696 72.9155C93.2186 74.7362 95.22 72.4649 95.5255 70.2661C95.7479 68.6654 94.589 66.0482 92.4367 66.4015C91.7377 66.5162 91.1717 66.8247 90.7362 67.2555M90.1666 72.3182C89.3106 70.7544 89.4814 68.497 90.7362 67.2555M90.1666 72.3182C90.3772 72.703 90.65 73.0458 90.9841 73.3212C94.9584 76.5967 100.423 71.1417 96.934 67.296C95.6019 65.8276 92.6433 64.6165 91.1679 66.5467C90.9858 66.785 90.8441 67.0209 90.7362 67.2555M90.7362 67.2555C90.2127 68.3942 90.4866 69.5028 90.8108 70.7048M57.1055 66.9602C57.6271 68.1577 58.2198 68.6799 59.4746 68.7196M59.4746 68.7196C59.6654 68.7257 59.8717 68.7206 60.0953 68.7049C60.3089 68.69 60.5303 68.6634 60.7506 68.6222M59.4746 68.7196C59.4178 68.6013 59.3692 68.4817 59.3298 68.3615C58.781 66.6881 58.5361 62.7304 61.1208 62.3443C63.3286 62.0146 65.6834 64.1554 65.1649 66.2596C65.0414 66.7608 64.8251 67.2122 64.5483 67.5963M59.4746 68.7196C60.4712 70.7958 63.9918 72.457 64.6594 69.2819C64.7721 68.7458 64.7297 68.1503 64.5483 67.5963M60.7506 68.6222C60.8317 68.6071 60.9126 68.59 60.9929 68.5707M60.7506 68.6222C60.7513 68.5345 60.7525 68.4447 60.7546 68.3533M60.7506 68.6222C60.7473 69.0572 60.7579 69.4386 60.7452 69.6803M60.9929 68.5707C61.963 68.3387 62.8454 67.8 62.854 66.713C62.857 66.3258 62.7827 65.9722 62.6558 65.6622M60.9929 68.5707C60.9102 68.5065 60.8306 68.4342 60.7546 68.3533M60.9929 68.5707C62.0598 69.3995 63.6339 68.8652 64.5483 67.5963M62.6558 65.6622C61.9114 63.8442 59.3583 63.524 59.9942 66.713C60.1412 67.4504 60.4113 67.9882 60.7546 68.3533M62.6558 65.6622C63.6024 65.9175 64.2559 66.703 64.5483 67.5963M62.6558 65.6622C62.5207 65.6257 62.3797 65.6001 62.2329 65.5865C60.9885 65.471 60.7843 67.06 60.7546 68.3533M61.0434 98.4306C61.3168 98.7232 61.3549 98.8703 60.9278 98.9801C57.8366 99.7748 54.9535 101.446 52.3195 103.129C41.1251 110.284 32.7716 122.924 28.6055 134.811M92.5015 93.7308C93.5283 92.8627 96.2794 95.1864 96.6324 95.4068C101.019 98.1457 105.461 101.029 109.025 104.735C112.389 108.233 114.911 112.551 117.258 116.7C121.04 123.389 123.043 130.711 125.866 137.774M155.968 78.9839C155.968 121.501 121.501 155.968 78.9839 155.968C36.4669 155.968 2 121.501 2 78.9839C2 36.4669 36.4669 2 78.9839 2C121.501 2 155.968 36.4669 155.968 78.9839ZM58.1488 48.8637C56.4087 56.8287 56.0531 64.6045 56.3982 72.7695C56.7911 82.0655 57.2575 93.0367 63.2756 100.957C66.0432 104.599 71.1895 107.686 75.9675 107.915C88.6446 108.522 94.3389 89.4883 96.881 81.1841C100.698 68.7145 103.176 54.7768 98.4753 42.144C96.5714 37.0269 91.9811 30.7036 86.5337 28.4368C81.7247 26.4357 75.6147 27.1536 70.9658 29.2396C63.8788 32.4196 59.8889 40.8987 58.1488 48.8637Z" stroke="#FFF5DA" stroke-width="3" stroke-linecap="round"/>
</svg>
