<svg width="182" height="159" viewBox="0 0 182 159" fill="none" xmlns="http://www.w3.org/2000/svg">
<g opacity="0.9">
<g opacity="0.9">
<path d="M57.3179 45.2474C58.6418 45.3365 66.1283 46.4363 66.1283 46.4363C66.1283 46.4363 74.7724 47.6039 81.219 48.427C85.0954 48.922 88.5722 49.0212 92.2866 49.9699C96.6886 51.0942 101.146 52.1722 105.633 53.0669C109.785 53.8951 114.224 54.0552 118.468 54.5576C122.351 55.0174 125.824 56.5857 129.729 56.9104C133.188 57.198 136.784 57.6427 139.973 58.7609C142.691 59.7139 145.868 59.1069 148.703 59.7496C151.512 60.3867 152.328 60.4047 152.991 62.8791C153.596 65.135 153.192 67.6787 152.902 70.0337C152.216 75.6192 149.847 81.1583 147.85 86.5119C145.055 94.0091 141.691 101.221 138.317 108.575C135.964 113.705 135.461 118.757 134.078 124.043C133.186 127.45 131.497 131.781 127.325 132.825C125.713 133.228 124.013 133.111 122.402 133.017C120.451 132.903 118.878 133.261 116.935 132.827C112.107 131.747 106.82 132.161 101.889 131.471C99.0025 131.067 96.0655 131.621 93.1532 131.206C90.37 130.808 87.3576 130.759 84.5095 130.986C77.2064 131.568 69.9891 129.787 62.828 129.119C59.3936 128.799 56.0346 128.102 52.5883 127.884C49.5188 127.689 46.6083 127.901 43.566 127.449C38.3213 126.669 33.1667 125.789 27.8729 125.174C24.4085 124.772 22.0757 123.688 21.777 120.54C21.4349 116.934 21.0635 113.527 21.6745 109.827C22.7346 103.406 23.3845 96.9552 24.4459 90.5263C25.1969 85.9776 26.5911 81.7263 28.0358 77.2747C29.8676 71.6302 31.18 65.8942 33.231 60.2828C34.4682 56.8982 35.2126 53.3881 36.3621 49.9874L36.789 47.5855C37.0956 45.9877 36.47 45.5092 37.8773 45.1321C37.8773 45.1321 44.6375 44.3856 47.2434 44.7842C49.5517 45.1373 55.0312 44.8976 57.3179 45.2474ZM57.3179 45.2474C56.2632 45.1765 58.348 45.405 57.3179 45.2474Z" stroke="#DD9E28" stroke-width="3" stroke-linecap="round"/>
<path d="M154.567 18.8328C147.941 20.6083 139.207 20.7504 132.392 21.6663C128.016 22.2545 123.792 22.9583 119.464 23.7753C114.768 24.6619 110.644 25.4393 105.431 25.6559C105.431 25.6559 98.9543 26.2135 93.2044 26.7559C89.2589 27.1282 85.7032 27.5119 81.7307 27.7005C76.8406 27.9327 72.8195 27.9476 67.9576 28.4841C63.9224 28.9294 55.6172 29.5005 51.5764 29.857C50.1474 29.9831 34.5833 31.0026 34.7044 31.7824C34.855 32.7514 34.4847 32.7521 34.9855 37.3189C35.2849 38.5429 36.2539 44.9631 37.7581 44.9689C42.1538 44.4669 49.6479 44.537 52.4411 43.7886C55.0314 43.0945 57.9158 43.5311 60.5936 43.2652C64.2646 42.9008 67.9067 42.2157 71.6296 42.1878C75.2121 42.161 78.7493 41.4618 82.3619 41.4759C84.7922 41.4854 87.186 42.0285 89.6214 41.8912C97.9872 41.4197 108.781 39.7544 117.187 40.3724C117.187 40.3724 128.804 39.2608 141.956 38.4895L155.44 36.3419C156.485 35.3042 155.906 33.4082 155.922 31.9945C155.951 29.3008 155.238 26.6351 155.211 23.9451C155.19 21.926 155.374 20.6038 154.567 18.8328ZM154.567 18.8328C154.919 18.7387 155.721 23.1381 154.567 18.8328Z" stroke="#DD9E28" stroke-width="3" stroke-linecap="round"/>
<path d="M34.6807 57.3457C34.6807 57.3457 40.5026 57.9433 43.6685 59.1969C46.1079 60.1629 49.6884 59.8005 52.2356 60.5415C56.0643 61.6553 60.172 61.993 64.2602 62.477C67.7373 62.8887 70.5964 64.1396 74.1218 64.2202C78.3806 64.3175 83.1599 65.769 87.4432 65.456C90.822 65.2091 92.9994 65.8452 96.3201 66.2467C99.5569 66.6381 104.166 67.9292 107.535 67.6787C112.47 67.3116 116.834 67.8692 121.586 68.9155C123.751 69.3921 125.161 69.5228 127.29 69.9916C129.864 70.5581 132.745 70.1309 135.157 71.053C139.27 72.6259 143.123 71.8399 147.362 73.4872C150.247 73.5253 153.944 73.3082 151.127 74.0631" stroke="#DD9E28" stroke-width="3" stroke-linecap="round"/>
</g>
<path d="M39.627 82.3887C39.627 82.3887 54.3026 84.2817 57.5992 84.6309C71.1752 86.0689 85.4665 88.1785 99.2629 87.9397C103.456 87.8671 107.456 86.6133 111.67 86.8597C115.888 87.1064 120.319 87.1821 124.487 87.6432C127.299 87.9542 129.963 88.813 132.778 89.1365" stroke="#DD9E28" stroke-width="3" stroke-linecap="round"/>
<path d="M51.3164 96.3711C51.3164 96.3711 59.477 97.5257 61.9214 97.6356C74.4668 98.1998 86.9849 98.9932 99.5085 99.7149C101.268 99.8163 113.039 101.701 107.273 100.393" stroke="#DD9E28" stroke-width="3" stroke-linecap="round"/>
</g>
<path opacity="0.9" d="M57.4521 31.3047C57.6726 31.2708 58.1508 31.3752 58.2954 31.5084C60.736 33.7582 63.0494 36.1536 65.2527 38.596C66.1366 39.576 67.1721 40.4081 68.0964 41.3432C69.3044 42.5654 68.0767 41.1289 67.539 40.6332" stroke="#DD9E28" stroke-width="3" stroke-linecap="round"/>
<path opacity="0.9" d="M95.1035 26.5879C95.6442 28.6059 97.3354 30.3437 98.6193 31.9957C100.38 34.2611 102.351 36.3559 104.502 38.3208C105.317 39.0648 106.242 39.6278 106.906 40.4935C107.635 41.4436 106.014 39.5342 105.875 39.3852" stroke="#DD9E28" stroke-width="3" stroke-linecap="round"/>
<path opacity="0.9" d="M127.22 23.1387C127.326 23.4087 127.534 23.5785 127.747 23.7853C129.691 25.6749 131.405 27.7476 133.375 29.6177C135.151 31.3037 137.119 32.867 138.955 34.5081C139.777 35.243 140.927 37.0281 142.049 37.3791C142.99 37.6734 142.455 37.994 141.819 38.3478" stroke="#DD9E28" stroke-width="3" stroke-linecap="round"/>
<path opacity="0.9" d="M53.4319 59.2382C56.7842 57.542 59.3707 53.9005 61.7092 51.2076C62.6665 50.1053 63.6329 49.0134 64.6937 47.985C66.1732 46.5506 64.7801 48.2837 64.3399 48.7959" stroke="#DD9E28" stroke-width="3" stroke-linecap="round"/>
<path opacity="0.9" d="M90.2496 64.1968C90.8823 64.3403 92.2186 61.9249 92.3662 61.7438C94.2492 59.4344 96.1371 57.2945 98.7001 55.5946C99.7286 54.9125 100.686 54.0953 101.554 53.2544C102.34 52.4924 102.279 52.6371 101.789 53.3705" stroke="#DD9E28" stroke-width="3" stroke-linecap="round"/>
<path opacity="0.9" d="M128.371 69.4501C128.193 69.7665 128.6 69.3641 128.638 69.3308C130.383 67.7861 132.187 66.2973 133.921 64.7403C135.344 63.4627 136.81 62.1802 138.148 60.8266C138.295 60.6783 138.222 60.5439 138.177 60.3772" stroke="#DD9E28" stroke-width="3" stroke-linecap="round"/>
</svg>
