<?xml version="1.0" encoding="utf-8"?>
<!-- Generator: Adobe Illustrator 27.0.1, SVG Export Plug-In . SVG Version: 6.00 Build 0)  -->
<svg version="1.1" id="Layer_1" xmlns="http://www.w3.org/2000/svg" xmlns:xlink="http://www.w3.org/1999/xlink" x="0px" y="0px"
	 viewBox="0 0 1920 1431" style="enable-background:new 0 0 1920 1431;" xml:space="preserve">
<style type="text/css">
	.st0{fill:none;stroke:#201818;stroke-width:2;stroke-linecap:round;}
	.st1{display:none;fill:none;stroke:#201818;stroke-width:2;stroke-linecap:round;}
</style>
<path class="st0" d="M314.4,72.5c-0.3-9-13.7-11.6-23.1-12.3c-10.1-0.8-19.2-2.1-24.7,5.6c-10.9,15.4-16.2,34.1-13.6,51.7
	c1.2,8.4,6.8,14.9,14.5,20.2C291.5,121.2,315.1,96.9,314.4,72.5z"/>
<path class="st0" d="M1920,176c-10.6,8.3-21.2,16.8-33.2,23.8c-14.6,8.6-25.4,19.1-37.8,28.9c-9.6,7.6-29.4,7.1-41.6,10.6
	c-11.9,3.4-24.1,7.3-36.7,8.9c-26.6,3.4-51.5-1-76.3-8.5c-38.3-11.7-63.9-36.5-88.2-61.8c-16.9-17.6-37.1-33.1-53.7-50.9
	c-9.7-10.4-17.4-22-28.1-31.8c-26.5-24-56.2-44.6-89.1-63c-11.5-6.4-26.2-9.7-39.2-13.7c-31.2-9.7-56-17.2-90-17.6
	c-33.7-0.4-67.3,1.2-101,1.6c-44.9,0.6-89.6,2.2-134,8c-98.7,13-193.7,25.8-287.6,55.3C696.9,93.1,609,120,519.3,140.7
	c-40.1,9.2-80,22.8-121.5,27.2c-28.8,3.1-56.9-3.9-83.7-11.8c-14.5-4.2-33.5-9.5-46.5-18.4c-4,2.7-7.9,5.2-11.8,7.5
	c-28.5,16.5-63.7,14.6-97.2,12.5c-24.5-1.5-48.2-3.6-72.1-8.1c-19.5-3.6-36.2-11-53.1-19.4c-18.7-9.3-35.6-18-35.6-36.1"/>
<path class="st1" d="M-52,1430c22.6-40.8,210.6-79.1,198-425.4c-7.2-198.9,168.4-320.7,215.8-370c47.4-49.3,210.7-52.8,475.7,119.4
	c235.2,152.9,723.5,84.9,948.7,62.8c52.6-5.2,97.1-7.3,133.8-9.1"/>
</svg>
