<svg width="67" height="63" viewBox="0 0 67 63" fill="none" xmlns="http://www.w3.org/2000/svg">
<path d="M14.9498 14.6375C14.9498 16.8932 14.6194 26.2824 14.5703 28.7105C14.4488 34.7129 15.7559 40.8258 16.4462 44.1925C17.4433 49.0561 18.5749 50.2659 19.8132 52.4229C19.8132 52.4229 23.1805 56.4135 26.1732 57.6605C30.6627 59.5313 33.858 61.5758 38.0564 60.3444C45.9291 58.0354 49.7054 53.0895 53.4754 46.8115C55.0188 44.2411 55.3597 39.4582 55.5915 36.6027C55.9284 32.4534 56.2721 28.2937 55.7873 24.1651C55.3905 20.7865 55.3767 15.3975 54.9799 12.0188" stroke="#FFF6DE" stroke-width="1.5" stroke-linecap="round"/>
<path d="M14.5784 29.3744C12.8683 22.4241 1.48524 20.2183 2.01824 29.3744C2.22954 33.0043 3.02405 36.742 6.67062 38.3932C10.8375 41.9499 16.4768 37.6556 14.9527 37.8346" stroke="#FFF6DE" stroke-width="1.5" stroke-linecap="round"/>
<path d="M6.03524 31.0749C8.2687 29.3107 9.31756 31.2216 11.2412 32.7409" stroke="#FFF6DE" stroke-width="1.5" stroke-linecap="round"/>
<path d="M56.8525 30.3506C60.9677 34.4658 62.1867 26.7205 62.3297 24.947C62.4592 23.342 61.4165 16.7215 58.2608 20.035C56.4786 21.9063 56.2184 22.5817 56.1042 24.9468" stroke="#FFF6DE" stroke-width="1.5" stroke-linecap="round"/>
<path d="M38.2466 16.4158C38.8975 14.7527 39.4872 22.3645 39.5403 22.6912C39.9733 25.3517 40.1933 33.3319 43.7444 34.1412C44.7188 34.3633 45.7229 34.2125 46.6999 34.0978" stroke="#FFF6DE" stroke-width="1.5" stroke-linecap="round"/>
<path d="M31.5068 44.041C31.7195 45.8519 33.7542 48.8472 35.6658 48.8053C37.164 48.7724 40.216 44.9647 39.2871 46.1408" stroke="#FFF6DE" stroke-width="1.5" stroke-linecap="round"/>
<path d="M29.5126 20.7203C29.6036 21.4955 29.6222 22.6827 30.4592 23.0785C31.1029 23.3828 30.7052 21.1392 30.4451 20.82C29.5964 19.7782 30.1306 22.7747 30.1896 23.2775" stroke="#FFF6DE" stroke-width="1.5" stroke-linecap="round"/>
<path d="M48.0144 20.069C48.5898 19.5217 48.6522 22.2088 48.9078 21.2615C49.1206 20.4731 48.7915 17.7053 48.5354 19.6939C48.4312 20.5032 48.8478 23.9577 48.5338 21.2845C48.412 20.2467 48.4504 17.3889 47.9708 19.6974" stroke="#FFF6DE" stroke-width="1.5" stroke-linecap="round"/>
<path d="M14.9043 5.30664C16.3589 8.96326 20.6562 15.8828 25.3663 15.6297C28.0435 15.4858 28.4445 9.05278 28.2287 7.21572C28.1365 6.42998 27.8035 4.52022 27.0929 3.95895C26.8738 3.78587 27.4822 7.11263 27.6192 7.37101C30.2738 12.3793 36.706 13.7881 39.4236 8.09834C39.9754 6.94321 40.1761 5.59595 40.0267 4.32346C39.9048 3.28592 39.4393 4.79014 39.4485 5.10287C39.5952 10.0527 44.2074 14.3311 48.7581 10.2458C50.1412 9.00417 51.2609 6.96978 51.3333 5.08833C51.3759 3.98067 51.2972 0.734395 50.9454 1.78558C49.8936 4.92858 52.7142 12.4184 56.4546 12.5228C58.8092 12.5886 61.3542 9.15731 58.2221 8.50656" stroke="#FFF6DE" stroke-width="1.5" stroke-linecap="round"/>
<path d="M7.51889 6.5522C5.74511 12.907 5.95049 16.7196 5.22559 23.2432" stroke="#FFF6DE" stroke-width="1.5" stroke-linecap="round"/>
<path d="M5.22405 37.8329C4.32019 39.5314 3.44774 43.7916 3.10938 45.6409C2.86122 46.9972 0.938792 53.3017 3.18852 54.1554C4.37546 54.6058 7.09704 53.8039 8.25872 53.4928C11.1353 52.7225 15.6966 51.2785 18.6921 50.9268" stroke="#FFF6DE" stroke-width="1.5" stroke-linecap="round"/>
<path d="M55.8455 47.3761C59.0785 46.7426 62.3267 46.5731 65.5877 46.1902C66.7213 46.057 65.4145 41.3054 65.2461 40.4126C64.6259 37.1254 63.7415 33.8368 62.679 30.711C61.9834 28.6644 61.5069 29.6514 60.52 30.6297" stroke="#FFF6DE" stroke-width="1.5" stroke-linecap="round"/>
</svg>
